<?xml version="1.0" encoding="UTF-8" standalone="no"?>
<svg
   xmlns:dc="http://purl.org/dc/elements/1.1/"
   xmlns:cc="http://creativecommons.org/ns#"
   xmlns:rdf="http://www.w3.org/1999/02/22-rdf-syntax-ns#"
   xmlns:svg="http://www.w3.org/2000/svg"
   xmlns="http://www.w3.org/2000/svg"
   version="1.1"
   id="svg6613"
   viewBox="0 0 62 92"
   height="297mm"
   width="210mm">
  <defs
     id="defs6615" />
  <metadata
     id="metadata6618">
    <rdf:RDF>
      <cc:Work
         rdf:about="">
        <dc:format>image/svg+xml</dc:format>
        <dc:type
           rdf:resource="http://purl.org/dc/dcmitype/StillImage" />
        <dc:title></dc:title>
      </cc:Work>
    </rdf:RDF>
  </metadata>
  <g
     id="layer1">

    <g
       id="purple-zero">
      <rect
         style="fill:#ffffff;fill-opacity:0.7;fill-rule:evenodd;stroke:#000000;stroke-opacity:0.5;stroke-width:0.5;stroke-miterlimit:4;stroke-dasharray:none"
         id="card-border"
         y="0"
         x="0"
         ry="10"
         rx="10"
         height="90"
         width="60" />

      <rect
         card-fill="rect3757-5-07-1-97"
         style="fill:#800080;fill-opacity:1;fill-rule:evenodd;stroke:none"
         id="card-purple-fill"
         y="5"
         x="5"
         ry="5"
         rx="5"
         height="80"
         width="50" />
      
      <path
         style="fill:#ffffff;fill-opacity:0.7;fill-rule:evenodd;stroke:none"
         id="card-whitecenter"
         d="m 45,20 c -22.09139,0 -40,17.90861 -40,40 0,5.52285 4.47715,10 10,10 22.09139,0 40,-17.90861 40,-40 0,-5.52285 -4.47715,-10 -10,-10 z" />

      <path
         style="fill:#800080;fill-opacity:1;fill-rule:evenodd;stroke:none"
         id="card-center-zero"
         d="m 19.170526,45.381505 q 0,-3.750969 0.811047,-6.668391 0.811048,-2.939357 2.39259,-4.935488 1.581542,-2.018066 3.893028,-3.07097 2.311485,-1.052904 5.31236,-1.052904 1.196295,0 2.352037,0.19742 1.155743,0.175485 2.108724,0.416775 1.094914,0.263226 2.108723,0.592259 -0.06083,0.570322 -0.182486,1.206452 -0.101381,0.570323 -0.324419,1.294194 -0.202761,0.701936 -0.547457,1.469678 -0.750218,-0.329032 -1.642371,-0.570323 -0.770495,-0.219354 -1.764028,-0.394839 -0.993533,-0.175483 -2.108723,-0.175483 -1.80458,0 -3.264466,0.789677 -1.439609,0.789679 -2.473694,2.303228 -1.01381,1.491614 -1.561267,3.663229 -0.547457,2.171614 -0.547457,4.935486 0,2.741937 0.547457,4.82581 0.547457,2.083873 1.561267,3.487744 1.034085,1.403872 2.473694,2.127744 1.459886,0.701936 3.264466,0.701936 1.135466,0 2.169552,-0.175484 1.034085,-0.175484 1.824856,-0.39484 0.932705,-0.24129 1.723476,-0.592258 0.223038,0.504517 0.385248,1.118711 0.141933,0.526451 0.243314,1.272259 0.121657,0.723872 0.08111,1.645163 -0.952981,0.350967 -2.027619,0.592258 -0.912428,0.241291 -2.068171,0.416774 -1.135466,0.175485 -2.331761,0.175485 -6.16396,0 -9.286493,-3.816778 -3.122532,-3.838712 -3.122532,-11.384524 z" />

<g id="mat" transform="matrix(0.5,0,0,0.5,-2.5,-7.5)">

      <path
         style="fill:#ffffff;fill-opacity:0.7;fill-rule:evenodd;stroke:none"
         id="card-topleft-zero"
         d="m 19.170526,45.381505 q 0,-3.750969 0.811047,-6.668391 0.811048,-2.939357 2.39259,-4.935488 1.581542,-2.018066 3.893028,-3.07097 2.311485,-1.052904 5.31236,-1.052904 1.196295,0 2.352037,0.19742 1.155743,0.175485 2.108724,0.416775 1.094914,0.263226 2.108723,0.592259 -0.06083,0.570322 -0.182486,1.206452 -0.101381,0.570323 -0.324419,1.294194 -0.202761,0.701936 -0.547457,1.469678 -0.750218,-0.329032 -1.642371,-0.570323 -0.770495,-0.219354 -1.764028,-0.394839 -0.993533,-0.175483 -2.108723,-0.175483 -1.80458,0 -3.264466,0.789677 -1.439609,0.789679 -2.473694,2.303228 -1.01381,1.491614 -1.561267,3.663229 -0.547457,2.171614 -0.547457,4.935486 0,2.741937 0.547457,4.82581 0.547457,2.083873 1.561267,3.487744 1.034085,1.403872 2.473694,2.127744 1.459886,0.701936 3.264466,0.701936 1.135466,0 2.169552,-0.175484 1.034085,-0.175484 1.824856,-0.39484 0.932705,-0.24129 1.723476,-0.592258 0.223038,0.504517 0.385248,1.118711 0.141933,0.526451 0.243314,1.272259 0.121657,0.723872 0.08111,1.645163 -0.952981,0.350967 -2.027619,0.592258 -0.912428,0.241291 -2.068171,0.416774 -1.135466,0.175485 -2.331761,0.175485 -6.16396,0 -9.286493,-3.816778 -3.122532,-3.838712 -3.122532,-11.384524 z" />
         </g>
 <path id="questions-top" d="m24.5 13.3c0-0.138-0.139-0.252-0.308-0.252h-1.85c-0.169 0-0.308 0.113-0.308 0.252v1.51c0 0.138 0.139 0.252 0.308 0.252h1.85c0.169 0 0.308-0.113 0.308-0.252v-1.51zm2.43-3.78c0-1.44-1.85-2.52-3.5-2.52-1.57 0-2.74 0.547-3.57 1.67-0.0847 0.113-0.0539 0.252 0.077 0.333l1.26 0.786c0.0616 0.0315 0.123 0.0503 0.193 0.0503 0.0847 0 0.177-0.0377 0.239-0.101 0.455-0.466 0.639-0.617 0.824-0.724 0.169-0.0944 0.485-0.182 0.832-0.182 0.624 0 1.19 0.315 1.19 0.667 0 0.403-0.247 0.61-0.84 0.831-0.678 0.252-1.6 0.906-1.6 1.67v0.283c0 0.138 0.108 0.352 0.277 0.352h1.85c0.177 0 0.308-0.164 0.308-0.302 0-0.182 0.285-0.617 0.74-0.831 0.732-0.333 1.73-0.793 1.73-1.99z" fill="#fff" style="fill-opacity:0.7"/>
 
<g id="mat2" transform="matrix(-0.5,0,0,-0.5,62.5,96.8)">

      <path
         style="fill:#ffffff;fill-opacity:0.7;fill-rule:evenodd;stroke:none"
         id="card-bottomright-zero"
         d="m 19.170526,45.381505 q 0,-3.750969 0.811047,-6.668391 0.811048,-2.939357 2.39259,-4.935488 1.581542,-2.018066 3.893028,-3.07097 2.311485,-1.052904 5.31236,-1.052904 1.196295,0 2.352037,0.19742 1.155743,0.175485 2.108724,0.416775 1.094914,0.263226 2.108723,0.592259 -0.06083,0.570322 -0.182486,1.206452 -0.101381,0.570323 -0.324419,1.294194 -0.202761,0.701936 -0.547457,1.469678 -0.750218,-0.329032 -1.642371,-0.570323 -0.770495,-0.219354 -1.764028,-0.394839 -0.993533,-0.175483 -2.108723,-0.175483 -1.80458,0 -3.264466,0.789677 -1.439609,0.789679 -2.473694,2.303228 -1.01381,1.491614 -1.561267,3.663229 -0.547457,2.171614 -0.547457,4.935486 0,2.741937 0.547457,4.82581 0.547457,2.083873 1.561267,3.487744 1.034085,1.403872 2.473694,2.127744 1.459886,0.701936 3.264466,0.701936 1.135466,0 2.169552,-0.175484 1.034085,-0.175484 1.824856,-0.39484 0.932705,-0.24129 1.723476,-0.592258 0.223038,0.504517 0.385248,1.118711 0.141933,0.526451 0.243314,1.272259 0.121657,0.723872 0.08111,1.645163 -0.952981,0.350967 -2.027619,0.592258 -0.912428,0.241291 -2.068171,0.416774 -1.135466,0.175485 -2.331761,0.175485 -6.16396,0 -9.286493,-3.816778 -3.122532,-3.838712 -3.122532,-11.384524 z" />
</g>
     <path id="questions-bottom" d="m34.9 76.7c0 0.138 0.131 0.252 0.291 0.252h1.75c0.16 0 0.291-0.113 0.291-0.252v-1.51c0-0.138-0.131-0.252-0.291-0.252h-1.75c-0.16 0-0.291 0.113-0.291 0.252v1.51zm-2.3 3.78c0 1.44 1.75 2.52 3.31 2.52 1.49 0 2.59-0.547 3.38-1.67 0.0801-0.113 0.051-0.252-0.0728-0.333l-1.2-0.8c-0.0583-0.0314-0.117-0.0503-0.182-0.0503-0.0801 0-0.167 0.0378-0.226 0.101-0.43 0.466-0.604 0.617-0.779 0.724-0.16 0.0944-0.459 0.182-0.786 0.182-0.59 0-1.12-0.315-1.12-0.667 0-0.403 0.233-0.61 0.794-0.831 0.641-0.252 1.51-0.906 1.51-1.67v-0.283c0-0.138-0.102-0.352-0.262-0.352h-1.75c-0.167 0-0.291 0.164-0.291 0.302 0 0.182-0.269 0.617-0.699 0.831-0.692 0.333-1.63 0.793-1.63 1.99z" fill="#fff" style="fill-opacity:0.7"/>
     
    </g>
  </g>
</svg>
