<?xml version="1.0" encoding="UTF-8" standalone="no"?>
<svg
   xmlns:dc="http://purl.org/dc/elements/1.1/"
   xmlns:cc="http://creativecommons.org/ns#"
   xmlns:rdf="http://www.w3.org/1999/02/22-rdf-syntax-ns#"
   xmlns:svg="http://www.w3.org/2000/svg"
   xmlns="http://www.w3.org/2000/svg"
   version="1.1"
   id="svg6613"
   viewBox="0 0 62 92"
   height="297mm"
   width="210mm">
  <defs
     id="defs6615" />
  <metadata
     id="metadata6618">
    <rdf:RDF>
      <cc:Work
         rdf:about="">
        <dc:format>image/svg+xml</dc:format>
        <dc:type
           rdf:resource="http://purl.org/dc/dcmitype/StillImage" />
        <dc:title></dc:title>
      </cc:Work>
    </rdf:RDF>
  </metadata>
  <g
     id="layer1">

    <g
       id="purple-zero">
      <rect
         style="fill:#ffffff;fill-opacity:1;fill-rule:evenodd;stroke:#000000;stroke-width:0.5;stroke-miterlimit:4;stroke-dasharray:none"
         id="card-border"
         y="0"
         x="0"
         ry="10"
         rx="10"
         height="90"
         width="60" />

      <rect
         card-fill="rect3757-5-07-1-97"
         style="fill:#ff5555;fill-opacity:1;fill-rule:evenodd;stroke:none"
         id="card-purple-fill"
         y="5"
         x="5"
         ry="5"
         rx="5"
         height="80"
         width="50" />
      
      <path
         style="fill:#ffffff;fill-opacity:1;fill-rule:evenodd;stroke:none"
         id="card-whitecenter"
         d="m 45,20 c -22.09139,0 -40,17.90861 -40,40 0,5.52285 4.47715,10 10,10 22.09139,0 40,-17.90861 40,-40 0,-5.52285 -4.47715,-10 -10,-10 z" />

      <path
         style="fill:#ff5555;fill-opacity:1;fill-rule:evenodd;stroke:none"
         id="card-center-zero"
         d="m 29,30 c -5.54,0 -10,4.45999 -10,9.99999 l 0,1 5,0 0,-1 c 0,-2.77 2.23,-5 5,-5 2.77,0 5,2.23 5,5 0,1.1275 -0.93551,3.34015 -1.91245,4.10902 -5.30481,4.17494 -5.24881,3.48544 -13.08755,8.89098 l 0,7 10,0 10,0 0,-5 0,-2 -5,0 0,2 -5,0 -4,0 c 6.19007,-4.35874 6.6427,-4.25311 11.49308,-8.59375 1.55408,-1.39076 2.50692,-4.15105 2.50692,-6.40625 0,-5.54 -4.46,-9.99999 -10,-9.99999 z" />

      <path
         style="fill:#ffffff;fill-opacity:1;fill-rule:evenodd;stroke:none"
         id="card-topleft-zero"
         d="m 12.5,7.5 c -2.77,0 -5,2.23 -5,5 l 0,0.5 2.5,0 0,-0.5 c 0,-1.385 1.115,-2.5 2.5,-2.5 1.385,0 2.5,1.115 2.5,2.5 0,0.56375 -0.46776,1.67007 -0.95623,2.05451 -2.6524,2.08747 -2.6244,1.74272 -6.54377,4.44549 l 0,3.5 5,0 5,0 0,-2.5 0,-1 -2.5,0 0,1 -2.5,0 -2,0 c 3.09503,-2.17937 3.32135,-2.12655 5.74654,-4.29687 0.77704,-0.69538 1.25346,-2.07553 1.25346,-3.20313 0,-2.77 -2.23,-5 -5,-5 z" />
         
<path id="heart-top" d="m26.7 9.53c0-1.07-0.796-2.03-1.96-2.03-0.835 0-1.58 0.395-1.96 1-0.378-0.609-1.12-1-1.96-1-1.16 0-1.96 0.958-1.96 2.03 0 1.15 0.679 2.06 1.5 2.93 0.77 0.823 1.67 1.6 2.18 2.55 0.0783-0.0226 0.157-0.0338 0.235-0.0338 0.0783 0 0.157 0.0113 0.235 0.0338 0.509-0.947 1.41-1.73 2.18-2.55 0.822-0.868 1.5-1.78 1.5-2.93z" fill="#fff"/>
 
      <path
         style="fill:#ffffff;fill-opacity:1;fill-rule:evenodd;stroke:none"
         id="card-bottomright-zero"
         d="m 47.5,82.5 c 2.77,0 5,-2.23 5,-5 l 0,-0.5 -2.5,0 0,0.5 c 0,1.385 -1.115,2.5 -2.5,2.5 -1.385,0 -2.5,-1.115 -2.5,-2.5 0,-0.56375 0.46776,-1.67007 0.95623,-2.05451 2.6524,-2.08747 2.6244,-1.74272 6.54377,-4.44549 l 0,-3.5 -5,0 -5,0 0,2.5 0,1 2.5,0 0,-1 2.5,0 2,0 c -3.09503,2.17937 -3.32135,2.12655 -5.74654,4.29687 -0.77704,0.69538 -1.25346,2.07553 -1.25346,3.20313 0,2.77 2.23,5 5,5 z" />

     <path id="heart-bottom" d="m32.7 80.4c0 1.07 0.796 2.03 1.96 2.03 0.835 0 1.58-0.395 1.96-1 0.378 0.609 1.12 1 1.96 1 1.16 0 1.96-0.958 1.96-2.03 0-1.15-0.679-2.06-1.5-2.93-0.77-0.823-1.67-1.6-2.18-2.55-0.0783 0.0226-0.157 0.0338-0.235 0.0338-0.0783 0-0.157-0.0113-0.235-0.0338-0.509 0.947-1.41 1.73-2.18 2.55-0.822 0.868-1.5 1.78-1.5 2.93z" fill="#fff"/>
     
    </g>
  </g>
</svg>
