<?xml version="1.0" encoding="UTF-8" standalone="no"?>
<svg
   xmlns:dc="http://purl.org/dc/elements/1.1/"
   xmlns:cc="http://creativecommons.org/ns#"
   xmlns:rdf="http://www.w3.org/1999/02/22-rdf-syntax-ns#"
   xmlns:svg="http://www.w3.org/2000/svg"
   xmlns="http://www.w3.org/2000/svg"
   version="1.1"
   id="svg6613"
   viewBox="0 0 62 92"
   height="297mm"
   width="210mm">
  <defs
     id="defs6615" />
  <metadata
     id="metadata6618">
    <rdf:RDF>
      <cc:Work
         rdf:about="">
        <dc:format>image/svg+xml</dc:format>
        <dc:type
           rdf:resource="http://purl.org/dc/dcmitype/StillImage" />
        <dc:title></dc:title>
      </cc:Work>
    </rdf:RDF>
  </metadata>
  <g
     id="layer1">

    <g
       id="purple-zero">
      <rect
         style="fill:#ffffff;fill-opacity:0.7;fill-rule:evenodd;stroke:#000000;stroke-opacity:0.5;stroke-width:0.5;stroke-miterlimit:4;stroke-dasharray:none"
         id="card-border"
         y="0"
         x="0"
         ry="10"
         rx="10"
         height="90"
         width="60" />

      <rect
         card-fill="rect3757-5-07-1-97"
         style="fill:#55aa55;fill-opacity:1;fill-rule:evenodd;stroke:none"
         id="card-purple-fill"
         y="5"
         x="5"
         ry="5"
         rx="5"
         height="80"
         width="50" />
      
      <path
         style="fill:#ffffff;fill-opacity:0.7;fill-rule:evenodd;stroke:none"
         id="card-whitecenter"
         d="m 45,20 c -22.09139,0 -40,17.90861 -40,40 0,5.52285 4.47715,10 10,10 22.09139,0 40,-17.90861 40,-40 0,-5.52285 -4.47715,-10 -10,-10 z" />

      <path
         style="fill:#55aa55;fill-opacity:1;fill-rule:evenodd;stroke:none"
         id="card-center-zero"
         d="m 21.532256,30.246011 q 0.869289,-0.04387 1.92607,-0.109677 0.920422,-0.04387 2.147651,-0.08775 1.244275,-0.04387 2.727179,-0.04387 2.658998,0 4.70438,0.921291 2.045384,0.899356 3.443062,2.741937 1.414724,1.842583 2.130609,4.628391 0.732928,2.785809 0.732928,6.536779 0,3.75097 -0.784064,6.602585 -0.784063,2.829679 -2.249921,4.738067 -1.448814,1.908389 -3.528286,2.873552 -2.079473,0.965161 -4.687338,0.965161 l -6.56227,0 0,-29.766473 z m 7.141796,25.92776 q 1.585173,0 2.829448,-0.855485 1.244276,-0.877419 2.113562,-2.390969 0.869287,-1.535485 1.3295,-3.575486 0.460211,-2.061938 0.460211,-4.430971 0,-2.741938 -0.460211,-4.803874 -0.460213,-2.083873 -1.3295,-3.487745 -0.869286,-1.403872 -2.113562,-2.105807 -1.244275,-0.701936 -2.829448,-0.701936 -0.869288,0 -1.499949,0.02194 -0.630658,0.02194 -1.02269,0.04387 -0.460211,0.04387 -0.767019,0.06581 l 0,22.22066 3.289658,0 z" />

<g id="mat" transform="matrix(0.5,0,0,0.5,-2.5,-7.5)">

      <path
         style="fill:#ffffff;fill-opacity:0.7;fill-rule:evenodd;stroke:none"
         id="card-topleft-zero"
         d="m 21.532256,30.246011 q 0.869289,-0.04387 1.92607,-0.109677 0.920422,-0.04387 2.147651,-0.08775 1.244275,-0.04387 2.727179,-0.04387 2.658998,0 4.70438,0.921291 2.045384,0.899356 3.443062,2.741937 1.414724,1.842583 2.130609,4.628391 0.732928,2.785809 0.732928,6.536779 0,3.75097 -0.784064,6.602585 -0.784063,2.829679 -2.249921,4.738067 -1.448814,1.908389 -3.528286,2.873552 -2.079473,0.965161 -4.687338,0.965161 l -6.56227,0 0,-29.766473 z m 7.141796,25.92776 q 1.585173,0 2.829448,-0.855485 1.244276,-0.877419 2.113562,-2.390969 0.869287,-1.535485 1.3295,-3.575486 0.460211,-2.061938 0.460211,-4.430971 0,-2.741938 -0.460211,-4.803874 -0.460213,-2.083873 -1.3295,-3.487745 -0.869286,-1.403872 -2.113562,-2.105807 -1.244275,-0.701936 -2.829448,-0.701936 -0.869288,0 -1.499949,0.02194 -0.630658,0.02194 -1.02269,0.04387 -0.460211,0.04387 -0.767019,0.06581 l 0,22.22066 3.289658,0 z" />
         </g>
 <path id="diamond-top" d="m26.5 11.2c-0.7-0.6-1.4-1.1-2-1.76-0.6-0.62-1.1-1.28-1.6-1.98-0.0783 0.0226-0.144 0.0338-0.222 0.0338-0.0783 0-0.157-0.0113-0.222-0.0338-0.47 0.699-1.02 1.36-1.62 1.98-0.6 0.631-1.27 1.21-1.98 1.74 0.0261 0.0451 0.0392 0.113 0.0392 0.169 0 0.0564-0.013 0.113-0.0392 0.169 0.718 0.485 1.38 1.03 1.98 1.61 0.6 0.586 1.14 1.22 1.62 1.88 0.0652-0.0226 0.144-0.0338 0.222-0.0338 0.0783 0 0.144 0.0113 0.222 0.0338 0.47-0.665 1.02-1.3 1.62-1.88 0.6-0.586 1.27-1.13 1.97-1.61-0.0261-0.0564-0.0392-0.113-0.0261-0.169 0-0.0564 0.013-0.124 0.0392-0.18z" fill="#fff" style="fill-opacity:0.7"/>
 
<g id="mat2" transform="matrix(-0.5,0,0,-0.5,62.5,96.8)">

      <path
         style="fill:#ffffff;fill-opacity:0.7;fill-rule:evenodd;stroke:none"
         id="card-bottomright-zero"
         d="m 21.532256,30.246011 q 0.869289,-0.04387 1.92607,-0.109677 0.920422,-0.04387 2.147651,-0.08775 1.244275,-0.04387 2.727179,-0.04387 2.658998,0 4.70438,0.921291 2.045384,0.899356 3.443062,2.741937 1.414724,1.842583 2.130609,4.628391 0.732928,2.785809 0.732928,6.536779 0,3.75097 -0.784064,6.602585 -0.784063,2.829679 -2.249921,4.738067 -1.448814,1.908389 -3.528286,2.873552 -2.079473,0.965161 -4.687338,0.965161 l -6.56227,0 0,-29.766473 z m 7.141796,25.92776 q 1.585173,0 2.829448,-0.855485 1.244276,-0.877419 2.113562,-2.390969 0.869287,-1.535485 1.3295,-3.575486 0.460211,-2.061938 0.460211,-4.430971 0,-2.741938 -0.460211,-4.803874 -0.460213,-2.083873 -1.3295,-3.487745 -0.869286,-1.403872 -2.113562,-2.105807 -1.244275,-0.701936 -2.829448,-0.701936 -0.869288,0 -1.499949,0.02194 -0.630658,0.02194 -1.02269,0.04387 -0.460211,0.04387 -0.767019,0.06581 l 0,22.22066 3.289658,0 z" />
</g>
     <path id="diamond-bottom" d="m32.8 78.8c0.718 0.519 1.38 1.09 1.98 1.73 0.613 0.62 1.15 1.29 1.62 1.98 0.0783-0.0226 0.144-0.0338 0.222-0.0338 0.0783 0 0.157 0.0113 0.222 0.0338 0.47-0.699 1.02-1.36 1.62-1.98 0.6-0.631 1.27-1.21 1.98-1.74-0.0261-0.0451-0.0392-0.113-0.0392-0.169 0-0.0564 0.013-0.113 0.0392-0.169-0.718-0.485-1.38-1.03-1.98-1.61-0.6-0.586-1.14-1.22-1.62-1.88-0.0652 0.0226-0.144 0.0338-0.222 0.0338-0.0783 0-0.144-0.0113-0.222-0.0338-0.47 0.665-1.02 1.3-1.62 1.88-0.6 0.586-1.27 1.13-1.97 1.61 0.0261 0.0564 0.0392 0.113 0.0261 0.169 0 0.0564-0.013 0.124-0.0392 0.18z" fill="#fff" style="fill-opacity:0.7"/>
     
    </g>
  </g>
</svg>
