<?xml version="1.0" encoding="UTF-8" standalone="no"?>
<svg id="svg6613" xmlns:rdf="http://www.w3.org/1999/02/22-rdf-syntax-ns#" xmlns="http://www.w3.org/2000/svg" viewBox="0 0 62 92" height="297mm" width="210mm" version="1.1" xmlns:cc="http://creativecommons.org/ns#" xmlns:dc="http://purl.org/dc/elements/1.1/">
 <metadata id="metadata6618">
  <rdf:RDF>
   <cc:Work rdf:about="">
    <dc:format>image/svg+xml</dc:format>
    <dc:type rdf:resource="http://purl.org/dc/dcmitype/StillImage"/>
    <dc:title/>
   </cc:Work>
  </rdf:RDF>
 </metadata>
 <path id="diamond-top" d="m26.5 11.2c-0.7-0.6-1.4-1.1-2-1.76-0.6-0.62-1.1-1.28-1.6-1.98-0.0783 0.0226-0.144 0.0338-0.222 0.0338-0.0783 0-0.157-0.0113-0.222-0.0338-0.47 0.699-1.02 1.36-1.62 1.98-0.6 0.631-1.27 1.21-1.98 1.74 0.0261 0.0451 0.0392 0.113 0.0392 0.169 0 0.0564-0.013 0.113-0.0392 0.169 0.718 0.485 1.38 1.03 1.98 1.61 0.6 0.586 1.14 1.22 1.62 1.88 0.0652-0.0226 0.144-0.0338 0.222-0.0338 0.0783 0 0.144 0.0113 0.222 0.0338 0.47-0.665 1.02-1.3 1.62-1.88 0.6-0.586 1.27-1.13 1.97-1.61-0.0261-0.0564-0.0392-0.113-0.0261-0.169 0-0.0564 0.013-0.124 0.0392-0.18z" fill="#fff"/>
 <path id="diamond-bottom" d="m32.8 78.8c0.718 0.519 1.38 1.09 1.98 1.73 0.613 0.62 1.15 1.29 1.62 1.98 0.0783-0.0226 0.144-0.0338 0.222-0.0338 0.0783 0 0.157 0.0113 0.222 0.0338 0.47-0.699 1.02-1.36 1.62-1.98 0.6-0.631 1.27-1.21 1.98-1.74-0.0261-0.0451-0.0392-0.113-0.0392-0.169 0-0.0564 0.013-0.113 0.0392-0.169-0.718-0.485-1.38-1.03-1.98-1.61-0.6-0.586-1.14-1.22-1.62-1.88-0.0652 0.0226-0.144 0.0338-0.222 0.0338-0.0783 0-0.144-0.0113-0.222-0.0338-0.47 0.665-1.02 1.3-1.62 1.88-0.6 0.586-1.27 1.13-1.97 1.61 0.0261 0.0564 0.0392 0.113 0.0261 0.169 0 0.0564-0.013 0.124-0.0392 0.18z" fill="#fff"/>
 <path id="heart-bottom" d="m32.7 80.4c0 1.07 0.796 2.03 1.96 2.03 0.835 0 1.58-0.395 1.96-1 0.378 0.609 1.12 1 1.96 1 1.16 0 1.96-0.958 1.96-2.03 0-1.15-0.679-2.06-1.5-2.93-0.77-0.823-1.67-1.6-2.18-2.55-0.0783 0.0226-0.157 0.0338-0.235 0.0338-0.0783 0-0.157-0.0113-0.235-0.0338-0.509 0.947-1.41 1.73-2.18 2.55-0.822 0.868-1.5 1.78-1.5 2.93z" fill="#fff"/>
 <path id="heart-top" d="m26.7 9.53c0-1.07-0.796-2.03-1.96-2.03-0.835 0-1.58 0.395-1.96 1-0.378-0.609-1.12-1-1.96-1-1.16 0-1.96 0.958-1.96 2.03 0 1.15 0.679 2.06 1.5 2.93 0.77 0.823 1.67 1.6 2.18 2.55 0.0783-0.0226 0.157-0.0338 0.235-0.0338 0.0783 0 0.157 0.0113 0.235 0.0338 0.509-0.947 1.41-1.73 2.18-2.55 0.822-0.868 1.5-1.78 1.5-2.93z" fill="#fff"/>
 <path id="spades-bottom" d="m32.1 77.8c0 1.1 0.77 1.87 1.68 2.59 0.835 0.654 1.79 1.26 2.26 2.12 0.0783-0.0226 0.157-0.0338 0.235-0.0338 0.0783 0 0.157 0.0113 0.235 0.0338 0.47-0.857 1.42-1.47 2.26-2.12 0.913-0.722 1.68-1.49 1.68-2.59 0-0.891-0.666-1.69-1.63-1.69-0.6 0-1.16 0.259-1.51 0.677h-0.365c0.0522-0.53 0.3-1.03 0.705-1.43-0.0522-0.0564-0.104-0.113-0.144-0.169-0.0392-0.0676-0.0522-0.135-0.0652-0.203-0.391 0.0226-0.77 0.0338-1.16 0.0338l-1.16-0.0338c-0.013 0.0676-0.0261 0.135-0.0652 0.203-0.0392 0.0564-0.0914 0.113-0.144 0.169 0.405 0.406 0.652 0.902 0.705 1.43h-0.365c-0.352-0.417-0.913-0.677-1.51-0.677-0.966 0-1.63 0.801-1.63 1.69z" fill="#fff"/>
 <path id="spades-top" d="m27.2 12.2c0-1.1-0.77-1.87-1.68-2.59-0.835-0.654-1.79-1.26-2.26-2.12-0.0783 0.0226-0.157 0.0338-0.235 0.0338-0.0783 0-0.157-0.0113-0.235-0.0338-0.47 0.857-1.42 1.47-2.26 2.12-0.913 0.722-1.68 1.49-1.68 2.59 0 0.891 0.666 1.69 1.63 1.69 0.6 0 1.16-0.259 1.51-0.677h0.365c-0.0522 0.53-0.3 1.03-0.705 1.43 0.0522 0.0564 0.104 0.113 0.144 0.169 0.0392 0.0676 0.0522 0.135 0.0652 0.203 0.391-0.0226 0.77-0.0338 1.16-0.0338l1.16 0.0338c0.013-0.0676 0.0261-0.135 0.0652-0.203 0.0392-0.0564 0.0914-0.113 0.144-0.169-0.405-0.406-0.652-0.902-0.705-1.43h0.365c0.352 0.417 0.913 0.677 1.51 0.677 0.966 0 1.63-0.801 1.63-1.69z" fill="none"/>
 <g id="layer1">
  <g id="purple-zero" fill-rule="evenodd">
   <rect id="card-border" rx="10" ry="10" height="90" width="60" stroke="#000" y="0" x="0" stroke-width=".5" fill="#fff"/>
   <rect id="card-purple-fill" card-fill="rect3757-5-07-1-97" rx="5" ry="5" height="80" width="50" y="5" x="5" fill="#00f"/>
   <path id="card-whitecenter" d="m45 20c-22.1 0-40 17.9-40 40 0 5.52 4.48 10 10 10 22.1 0 40-17.9 40-40 0-5.52-4.48-10-10-10z" fill="#fff"/>
   <path id="card-center-zero" d="m30 30c-5.52 0-10 4.48-10 10s4.48 10 10 10c1.82 0 3.53-0.497 5-1.34v1.34c0 2.76-2.24 5-5 5-1.95 0-3.62-1.15-4.44-2.78l-4.5 2.25c1.64 3.28 5.02 5.53 8.94 5.53 5.52 0 10-4.48 10-10v-10c0-5.52-4.48-10-10-10zm0 5c2.76 0 5 2.24 5 5s-2.24 5-5 5-5-2.24-5-5 2.24-5 5-5zm-5 26v2h10v-2h-10z" fill="#00f"/>
   <path id="card-topleft-zero" d="m12.5 22.5c2.76 0 5-2.24 5-5v-5c0-2.76-2.24-5-5-5s-5 2.24-5 5 2.24 5 5 5c0.908 0 1.77-0.248 2.5-0.672v0.672c0 1.38-1.12 2.5-2.5 2.5-0.977 0-1.81-0.574-2.22-1.39l-2.25 1.12c0.82 1.64 2.51 2.77 4.47 2.77zm0-7.5c-1.38 0-2.5-1.12-2.5-2.5s1.12-2.5 2.5-2.5 2.5 1.12 2.5 2.5-1.12 2.5-2.5 2.5z" fill="#fff"/>
   <path id="card-bottomright-zero" d="m47.5 67.5c-2.76 0-5 2.24-5 5v5c0 2.76 2.24 5 5 5s5-2.24 5-5-2.24-5-5-5c-0.908 0-1.77 0.248-2.5 0.672v-0.672c0-1.38 1.12-2.5 2.5-2.5 0.977 0 1.81 0.574 2.22 1.39l2.25-1.12c-0.82-1.64-2.51-2.77-4.47-2.77zm0 7.5c1.38 0 2.5 1.12 2.5 2.5s-1.12 2.5-2.5 2.5-2.5-1.12-2.5-2.5 1.12-2.5 2.5-2.5z" fill="#fff"/>
  </g>
 </g>
 <text id="text6004-0-4" style="word-spacing:0px;letter-spacing:0px" xml:space="preserve" transform="scale(1.08 .930)" font-size="3.27px" y="-30.482075" x="-33.404732" font-family="sans-serif" line-height="125%" fill="#000000"><tspan id="tspan6006-1-7" font-size="5.72px" y="-30.482075" x="-33.404732"><tspan id="tspan6254-9-71" font-family="&apos;TeX Gyre Pagella Math&apos;">♡</tspan><tspan id="tspan6008-7-64" font-family="&apos;TeX Gyre Termes Math&apos;">♢♧♤</tspan><tspan id="tspan6220-5-9" font-family="&apos;TeX Gyre Pagella Math&apos;">♠♥♦♣</tspan></tspan></text>
 <text id="text7848" style="word-spacing:0px;letter-spacing:0px" transform="scale(1.08 .930)" line-height="125%" xml:space="preserve" font-size="3.27px" y="-30.482075" x="-33.404732" font-family="sans-serif" fill="#000000"><tspan id="tspan7850" font-size="5.72px" y="-30.482075" x="-33.404732"><tspan id="tspan7852" font-family="&apos;TeX Gyre Pagella Math&apos;">♡</tspan><tspan id="tspan7854" font-family="&apos;TeX Gyre Termes Math&apos;">♢♧♤</tspan><tspan id="tspan7856" font-family="&apos;TeX Gyre Pagella Math&apos;">♠♥♦♣</tspan></tspan></text>
 <text id="text6004-7" style="word-spacing:0px;letter-spacing:0px" xml:space="preserve" transform="scale(1.08 .930)" font-size="3.27px" y="-13.265507" x="26.139738" font-family="sans-serif" line-height="125%" fill="#000000"><tspan id="tspan6006-2" font-size="5.72px" y="-13.265507" x="26.139738" font-family="FontAwesome"></tspan></text>
 <path id="clubs-top" d="m27.7 12.1c0-1.12-0.613-1.69-1.71-1.69-0.405 0-0.744 0.0789-1.02 0.248l-0.235-0.259c0.326-0.282 0.509-0.699 0.509-1.23 0-1.1-0.692-1.69-2-1.69-1.3 0-2 0.586-2 1.69 0 0.53 0.183 0.947 0.509 1.23l-0.235 0.259c-0.274-0.169-0.613-0.248-1.02-0.248-1.1 0-1.71 0.575-1.71 1.69 0 1.1 0.613 1.69 1.71 1.69 1.02 0 1.62-0.507 1.7-1.47h0.391c-0.0392 0.812-0.3 1.62-0.757 2.35 0.0652 0.0451 0.117 0.0902 0.157 0.147 0.0522 0.0564 0.0783 0.124 0.0914 0.192 0.391-0.0226 0.77-0.0338 1.16-0.0338 0.391 0 0.77 0.0113 1.15 0.0338 0.0261-0.0676 0.0522-0.135 0.104-0.192 0.0392-0.0564 0.0914-0.101 0.157-0.147-0.457-0.722-0.718-1.53-0.757-2.35h0.391c0.0783 0.958 0.679 1.47 1.7 1.47 1.1 0 1.71-0.586 1.71-1.69z" fill="#fff"/>
 <text id="text7858" style="word-spacing:0px;letter-spacing:0px" xml:space="preserve" transform="scale(1.08 .930)" font-size="12.1px" y="16.15118" x="16.545815" font-family="sans-serif" line-height="125%" fill="#ffffff"><tspan id="tspan7860" font-size="12.1px" y="16.15118" x="16.545815" font-family="FontAwesome" fill="#ffffff"><tspan id="tspan7862" font-size="12.1px" font-family="&apos;TeX Gyre Pagella Math&apos;" fill="#ffffff">♣</tspan></tspan></text>
 <path id="questions-top" d="m24.5 13.3c0-0.138-0.139-0.252-0.308-0.252h-1.85c-0.169 0-0.308 0.113-0.308 0.252v1.51c0 0.138 0.139 0.252 0.308 0.252h1.85c0.169 0 0.308-0.113 0.308-0.252v-1.51zm2.43-3.78c0-1.44-1.85-2.52-3.5-2.52-1.57 0-2.74 0.547-3.57 1.67-0.0847 0.113-0.0539 0.252 0.077 0.333l1.26 0.786c0.0616 0.0315 0.123 0.0503 0.193 0.0503 0.0847 0 0.177-0.0377 0.239-0.101 0.455-0.466 0.639-0.617 0.824-0.724 0.169-0.0944 0.485-0.182 0.832-0.182 0.624 0 1.19 0.315 1.19 0.667 0 0.403-0.247 0.61-0.84 0.831-0.678 0.252-1.6 0.906-1.6 1.67v0.283c0 0.138 0.108 0.352 0.277 0.352h1.85c0.177 0 0.308-0.164 0.308-0.302 0-0.182 0.285-0.617 0.74-0.831 0.732-0.333 1.73-0.793 1.73-1.99z" fill="#0ff"/>
 <path id="clubs-bottom" d="m31.6 77.8c0 1.12 0.613 1.69 1.71 1.69 0.405 0 0.744-0.0789 1.02-0.248l0.235 0.259c-0.326 0.282-0.509 0.699-0.509 1.23 0 1.1 0.692 1.69 2 1.69 1.3 0 2-0.586 2-1.69 0-0.53-0.183-0.947-0.509-1.23l0.235-0.259c0.274 0.169 0.613 0.248 1.02 0.248 1.1 0 1.71-0.575 1.71-1.69 0-1.1-0.613-1.69-1.71-1.69-1.02 0-1.62 0.507-1.7 1.47h-0.391c0.0392-0.812 0.3-1.62 0.757-2.35-0.0652-0.0451-0.117-0.0902-0.157-0.147-0.0522-0.0564-0.0783-0.124-0.0914-0.192-0.391 0.0226-0.77 0.0338-1.16 0.0338-0.391 0-0.77-0.0113-1.15-0.0338-0.0261 0.0676-0.0522 0.135-0.104 0.192-0.0392 0.0564-0.0914 0.101-0.157 0.147 0.457 0.722 0.718 1.53 0.757 2.35h-0.391c-0.0783-0.958-0.679-1.47-1.7-1.47-1.1 0-1.71 0.586-1.71 1.69z" fill="#fff"/>
 <path id="questions-bottom" d="m34.9 76.7c0 0.138 0.131 0.252 0.291 0.252h1.75c0.16 0 0.291-0.113 0.291-0.252v-1.51c0-0.138-0.131-0.252-0.291-0.252h-1.75c-0.16 0-0.291 0.113-0.291 0.252v1.51zm-2.3 3.78c0 1.44 1.75 2.52 3.31 2.52 1.49 0 2.59-0.547 3.38-1.67 0.0801-0.113 0.051-0.252-0.0728-0.333l-1.2-0.8c-0.0583-0.0314-0.117-0.0503-0.182-0.0503-0.0801 0-0.167 0.0378-0.226 0.101-0.43 0.466-0.604 0.617-0.779 0.724-0.16 0.0944-0.459 0.182-0.786 0.182-0.59 0-1.12-0.315-1.12-0.667 0-0.403 0.233-0.61 0.794-0.831 0.641-0.252 1.51-0.906 1.51-1.67v-0.283c0-0.138-0.102-0.352-0.262-0.352h-1.75c-0.167 0-0.291 0.164-0.291 0.302 0 0.182-0.269 0.617-0.699 0.831-0.692 0.333-1.63 0.793-1.63 1.99z" fill="#0ff"/>
</svg>
