<?xml version="1.0" encoding="UTF-8" standalone="no"?>
<svg
   xmlns:dc="http://purl.org/dc/elements/1.1/"
   xmlns:cc="http://creativecommons.org/ns#"
   xmlns:rdf="http://www.w3.org/1999/02/22-rdf-syntax-ns#"
   xmlns:svg="http://www.w3.org/2000/svg"
   xmlns="http://www.w3.org/2000/svg"
   version="1.1"
   id="svg6613"
   viewBox="0 0 62 92"
   height="297mm"
   width="210mm">
  <defs
     id="defs6615" />
  <metadata
     id="metadata6618">
    <rdf:RDF>
      <cc:Work
         rdf:about="">
        <dc:format>image/svg+xml</dc:format>
        <dc:type
           rdf:resource="http://purl.org/dc/dcmitype/StillImage" />
        <dc:title></dc:title>
      </cc:Work>
    </rdf:RDF>
  </metadata>
  <g
     id="layer1">

    <g
       id="purple-zero">
      <rect
         style="fill:#ffffff;fill-opacity:1;fill-rule:evenodd;stroke:#000000;stroke-width:0.5;stroke-miterlimit:4;stroke-dasharray:none"
         id="card-border"
         y="0"
         x="0"
         ry="10"
         rx="10"
         height="90"
         width="60" />

      <rect
         card-fill="rect3757-5-07-1-97"
         style="fill:#ff5555;fill-opacity:1;fill-rule:evenodd;stroke:none"
         id="card-purple-fill"
         y="5"
         x="5"
         ry="5"
         rx="5"
         height="80"
         width="50" />
      
      <path
         style="fill:#ffffff;fill-opacity:1;fill-rule:evenodd;stroke:none"
         id="card-whitecenter"
         d="m 45,20 c -22.09139,0 -40,17.90861 -40,40 0,5.52285 4.47715,10 10,10 22.09139,0 40,-17.90861 40,-40 0,-5.52285 -4.47715,-10 -10,-10 z" />

      <path
         style="fill:#ff5555;fill-opacity:1;fill-rule:evenodd;stroke:none"
         id="card-center-zero"
         d="m 30,30 c -4.14214,0 -7.5,3.35786 -7.5,7.5 l 5,0 c 0,-1.38071 1.11929,-2.5 2.5,-2.5 1.38071,0 2.5,1.11929 2.5,2.5 0,1.38071 -1.11929,2.5 -2.5,2.5 l -3,0 0,5 3,0 c 2.77,0 5,2.23 5,5 0,2.77 -2.23,5 -5,5 -2.77,0 -5,-2.23 -5,-5 l -5,0 c 0,5.54 4.46,10 10,10 5.54,0 10,-4.46 10,-10 0,-3.29394 -1.58832,-6.18011 -4.03125,-8 0.95194,-1.25738 1.53125,-2.80132 1.53125,-4.5 0,-4.14214 -3.35786,-7.5 -7.5,-7.5 z" />

      <path
         style="fill:#ffffff;fill-opacity:1;fill-rule:evenodd;stroke:none"
         id="card-topleft-zero"
         d="m 12.5,7.5 c -2.07107,0 -3.75,1.67893 -3.75,3.75 l 2.5,0 c 0,-0.69036 0.55965,-1.25 1.25,-1.25 0.69035,0 1.25,0.55964 1.25,1.25 0,0.69035 -0.55965,1.25 -1.25,1.25 l -1.5,0 0,2.49999 1.5,0 c 1.385,0 2.5,1.115 2.5,2.50001 0,1.385 -1.115,2.5 -2.5,2.5 -1.385,0 -2.5,-1.115 -2.5,-2.5 l -2.5,0 c 0,2.77 2.23,5 5,5 2.77,0 5,-2.23 5,-5 0,-1.64697 -0.79416,-3.09006 -2.01563,-4 0.47598,-0.6287 0.76563,-1.40066 0.76563,-2.25 0,-2.07107 -1.67893,-3.75 -3.75,-3.75 z" />
         
<path id="heart-top" d="m26.7 9.53c0-1.07-0.796-2.03-1.96-2.03-0.835 0-1.58 0.395-1.96 1-0.378-0.609-1.12-1-1.96-1-1.16 0-1.96 0.958-1.96 2.03 0 1.15 0.679 2.06 1.5 2.93 0.77 0.823 1.67 1.6 2.18 2.55 0.0783-0.0226 0.157-0.0338 0.235-0.0338 0.0783 0 0.157 0.0113 0.235 0.0338 0.509-0.947 1.41-1.73 2.18-2.55 0.822-0.868 1.5-1.78 1.5-2.93z" fill="#fff"/>
 
      <path
         style="fill:#ffffff;fill-opacity:1;fill-rule:evenodd;stroke:none"
         id="card-bottomright-zero"
         d="m 47.5,82.5 c 2.07107,0 3.75,-1.67893 3.75,-3.75 l -2.5,0 c 0,0.69036 -0.55965,1.25 -1.25,1.25 -0.69035,0 -1.25,-0.55964 -1.25,-1.25 0,-0.69035 0.55965,-1.25 1.25,-1.25 l 1.5,0 0,-2.49999 -1.5,0 c -1.385,0 -2.5,-1.115 -2.5,-2.50001 0,-1.385 1.115,-2.5 2.5,-2.5 1.385,0 2.5,1.115 2.5,2.5 l 2.5,0 c 0,-2.77 -2.23,-5 -5,-5 -2.77,0 -5,2.23 -5,5 0,1.64697 0.79416,3.09006 2.01563,4 -0.47598,0.6287 -0.76563,1.40066 -0.76563,2.25 0,2.07107 1.67893,3.75 3.75,3.75 z" />

     <path id="heart-bottom" d="m32.7 80.4c0 1.07 0.796 2.03 1.96 2.03 0.835 0 1.58-0.395 1.96-1 0.378 0.609 1.12 1 1.96 1 1.16 0 1.96-0.958 1.96-2.03 0-1.15-0.679-2.06-1.5-2.93-0.77-0.823-1.67-1.6-2.18-2.55-0.0783 0.0226-0.157 0.0338-0.235 0.0338-0.0783 0-0.157-0.0113-0.235-0.0338-0.509 0.947-1.41 1.73-2.18 2.55-0.822 0.868-1.5 1.78-1.5 2.93z" fill="#fff"/>
     
    </g>
  </g>
</svg>
