<?xml version="1.0" encoding="UTF-8" standalone="no"?>
<svg
   xmlns:dc="http://purl.org/dc/elements/1.1/"
   xmlns:cc="http://creativecommons.org/ns#"
   xmlns:rdf="http://www.w3.org/1999/02/22-rdf-syntax-ns#"
   xmlns:svg="http://www.w3.org/2000/svg"
   xmlns="http://www.w3.org/2000/svg"
   version="1.1"
   id="svg6613"
   viewBox="0 0 62 92"
   height="297mm"
   width="210mm">
  <defs
     id="defs6615" />
  <metadata
     id="metadata6618">
    <rdf:RDF>
      <cc:Work
         rdf:about="">
        <dc:format>image/svg+xml</dc:format>
        <dc:type
           rdf:resource="http://purl.org/dc/dcmitype/StillImage" />
        <dc:title></dc:title>
      </cc:Work>
    </rdf:RDF>
  </metadata>
  <g
     id="layer1">

    <g
       id="purple-zero">
      <rect
         style="fill:#ffffff;fill-opacity:0.7;fill-rule:evenodd;stroke:#000000;stroke-opacity:0.5;stroke-width:0.5;stroke-miterlimit:4;stroke-dasharray:none"
         id="card-border"
         y="0"
         x="0"
         ry="10"
         rx="10"
         height="90"
         width="60" />

      <rect
         card-fill="rect3757-5-07-1-97"
         style="fill:#800080;fill-opacity:1;fill-rule:evenodd;stroke:none"
         id="card-purple-fill"
         y="5"
         x="5"
         ry="5"
         rx="5"
         height="80"
         width="50" />
      
      <path
         style="fill:#ffffff;fill-opacity:0.7;fill-rule:evenodd;stroke:none"
         id="card-whitecenter"
         d="m 45,20 c -22.09139,0 -40,17.90861 -40,40 0,5.52285 4.47715,10 10,10 22.09139,0 40,-17.90861 40,-40 0,-5.52285 -4.47715,-10 -10,-10 z" />

      <path
         style="fill:#800080;fill-opacity:1;fill-rule:evenodd;stroke:none"
         id="card-center-zero"
         d="m 21.375338,30.224075 9.616025,0 q 1.519332,0 2.846343,0.482581 1.327012,0.460646 2.288614,1.425808 0.961603,0.943226 1.519332,2.369034 0.55773,1.403872 0.55773,3.268389 0,0.987097 -0.307714,1.952259 -0.288479,0.965163 -0.826978,1.820647 -0.519265,0.833549 -1.230851,1.491614 -0.711585,0.63613 -1.538564,0.965162 0.865443,0.175484 1.730885,0.745807 0.865442,0.570323 1.557796,1.51355 0.692354,0.943226 1.115459,2.215484 0.442336,1.250324 0.442336,2.763874 0,2.083872 -0.557728,3.707099 -0.538497,1.623227 -1.634725,2.763873 -1.096226,1.118711 -2.711719,1.710969 -1.615492,0.592259 -3.750249,0.592259 l -9.115992,0 0,-29.788409 z m 8.654422,26.059373 q 1.057764,0 1.903974,-0.263226 0.865441,-0.263225 1.480867,-0.855484 0.615426,-0.592258 0.942371,-1.535485 0.346177,-0.943226 0.346177,-2.303228 0,-1.381936 -0.346177,-2.303227 Q 34.030027,48.079572 33.433833,47.509249 32.856872,46.91699 32.049125,46.6757 31.260612,46.434409 30.337474,46.434409 l -4.596461,0 0,9.849039 4.288747,0 z m 1.134691,-13.161299 q 1.346244,-0.460646 1.961669,-1.75484 0.634658,-1.31613 0.634658,-3.509679 0,-1.864518 -0.961603,-2.895487 -0.961602,-1.052904 -2.654022,-1.052904 l -4.40414,0 0,9.21291 5.423438,0 z" />

<g id="mat" transform="matrix(0.5,0,0,0.5,-2.5,-7.5)">

      <path
         style="fill:#ffffff;fill-opacity:0.7;fill-rule:evenodd;stroke:none"
         id="card-topleft-zero"
         d="m 21.375338,30.224075 9.616025,0 q 1.519332,0 2.846343,0.482581 1.327012,0.460646 2.288614,1.425808 0.961603,0.943226 1.519332,2.369034 0.55773,1.403872 0.55773,3.268389 0,0.987097 -0.307714,1.952259 -0.288479,0.965163 -0.826978,1.820647 -0.519265,0.833549 -1.230851,1.491614 -0.711585,0.63613 -1.538564,0.965162 0.865443,0.175484 1.730885,0.745807 0.865442,0.570323 1.557796,1.51355 0.692354,0.943226 1.115459,2.215484 0.442336,1.250324 0.442336,2.763874 0,2.083872 -0.557728,3.707099 -0.538497,1.623227 -1.634725,2.763873 -1.096226,1.118711 -2.711719,1.710969 -1.615492,0.592259 -3.750249,0.592259 l -9.115992,0 0,-29.788409 z m 8.654422,26.059373 q 1.057764,0 1.903974,-0.263226 0.865441,-0.263225 1.480867,-0.855484 0.615426,-0.592258 0.942371,-1.535485 0.346177,-0.943226 0.346177,-2.303228 0,-1.381936 -0.346177,-2.303227 Q 34.030027,48.079572 33.433833,47.509249 32.856872,46.91699 32.049125,46.6757 31.260612,46.434409 30.337474,46.434409 l -4.596461,0 0,9.849039 4.288747,0 z m 1.134691,-13.161299 q 1.346244,-0.460646 1.961669,-1.75484 0.634658,-1.31613 0.634658,-3.509679 0,-1.864518 -0.961603,-2.895487 -0.961602,-1.052904 -2.654022,-1.052904 l -4.40414,0 0,9.21291 5.423438,0 z" />
         </g>
 <path id="diamond-top" d="m26.5 11.2c-0.7-0.6-1.4-1.1-2-1.76-0.6-0.62-1.1-1.28-1.6-1.98-0.0783 0.0226-0.144 0.0338-0.222 0.0338-0.0783 0-0.157-0.0113-0.222-0.0338-0.47 0.699-1.02 1.36-1.62 1.98-0.6 0.631-1.27 1.21-1.98 1.74 0.0261 0.0451 0.0392 0.113 0.0392 0.169 0 0.0564-0.013 0.113-0.0392 0.169 0.718 0.485 1.38 1.03 1.98 1.61 0.6 0.586 1.14 1.22 1.62 1.88 0.0652-0.0226 0.144-0.0338 0.222-0.0338 0.0783 0 0.144 0.0113 0.222 0.0338 0.47-0.665 1.02-1.3 1.62-1.88 0.6-0.586 1.27-1.13 1.97-1.61-0.0261-0.0564-0.0392-0.113-0.0261-0.169 0-0.0564 0.013-0.124 0.0392-0.18z" fill="#fff" style="fill-opacity:0.7"/>
 
<g id="mat2" transform="matrix(-0.5,0,0,-0.5,62.5,96.8)">

      <path
         style="fill:#ffffff;fill-opacity:0.7;fill-rule:evenodd;stroke:none"
         id="card-bottomright-zero"
         d="m 21.375338,30.224075 9.616025,0 q 1.519332,0 2.846343,0.482581 1.327012,0.460646 2.288614,1.425808 0.961603,0.943226 1.519332,2.369034 0.55773,1.403872 0.55773,3.268389 0,0.987097 -0.307714,1.952259 -0.288479,0.965163 -0.826978,1.820647 -0.519265,0.833549 -1.230851,1.491614 -0.711585,0.63613 -1.538564,0.965162 0.865443,0.175484 1.730885,0.745807 0.865442,0.570323 1.557796,1.51355 0.692354,0.943226 1.115459,2.215484 0.442336,1.250324 0.442336,2.763874 0,2.083872 -0.557728,3.707099 -0.538497,1.623227 -1.634725,2.763873 -1.096226,1.118711 -2.711719,1.710969 -1.615492,0.592259 -3.750249,0.592259 l -9.115992,0 0,-29.788409 z m 8.654422,26.059373 q 1.057764,0 1.903974,-0.263226 0.865441,-0.263225 1.480867,-0.855484 0.615426,-0.592258 0.942371,-1.535485 0.346177,-0.943226 0.346177,-2.303228 0,-1.381936 -0.346177,-2.303227 Q 34.030027,48.079572 33.433833,47.509249 32.856872,46.91699 32.049125,46.6757 31.260612,46.434409 30.337474,46.434409 l -4.596461,0 0,9.849039 4.288747,0 z m 1.134691,-13.161299 q 1.346244,-0.460646 1.961669,-1.75484 0.634658,-1.31613 0.634658,-3.509679 0,-1.864518 -0.961603,-2.895487 -0.961602,-1.052904 -2.654022,-1.052904 l -4.40414,0 0,9.21291 5.423438,0 z" />
</g>
     <path id="diamond-bottom" d="m32.8 78.8c0.718 0.519 1.38 1.09 1.98 1.73 0.613 0.62 1.15 1.29 1.62 1.98 0.0783-0.0226 0.144-0.0338 0.222-0.0338 0.0783 0 0.157 0.0113 0.222 0.0338 0.47-0.699 1.02-1.36 1.62-1.98 0.6-0.631 1.27-1.21 1.98-1.74-0.0261-0.0451-0.0392-0.113-0.0392-0.169 0-0.0564 0.013-0.113 0.0392-0.169-0.718-0.485-1.38-1.03-1.98-1.61-0.6-0.586-1.14-1.22-1.62-1.88-0.0652 0.0226-0.144 0.0338-0.222 0.0338-0.0783 0-0.144-0.0113-0.222-0.0338-0.47 0.665-1.02 1.3-1.62 1.88-0.6 0.586-1.27 1.13-1.97 1.61 0.0261 0.0564 0.0392 0.113 0.0261 0.169 0 0.0564-0.013 0.124-0.0392 0.18z" fill="#fff" style="fill-opacity:0.7"/>
     
    </g>
  </g>
</svg>
