<?xml version="1.0" encoding="UTF-8" standalone="no"?>
<svg
   xmlns:dc="http://purl.org/dc/elements/1.1/"
   xmlns:cc="http://creativecommons.org/ns#"
   xmlns:rdf="http://www.w3.org/1999/02/22-rdf-syntax-ns#"
   xmlns:svg="http://www.w3.org/2000/svg"
   xmlns="http://www.w3.org/2000/svg"
   xmlns:sodipodi="http://sodipodi.sourceforge.net/DTD/sodipodi-0.dtd"
   xmlns:inkscape="http://www.inkscape.org/namespaces/inkscape"
   version="1.1"
   id="svg6613"
   viewBox="0 0 62 92"
   height="297mm"
   width="210mm"
   inkscape:version="0.91 r13725"
   sodipodi:docname="card-suits-ink.svg">
  <sodipodi:namedview
     pagecolor="#ffffff"
     bordercolor="#666666"
     borderopacity="1"
     objecttolerance="10"
     gridtolerance="10"
     guidetolerance="10"
     inkscape:pageopacity="0"
     inkscape:pageshadow="2"
     inkscape:window-width="1920"
     inkscape:window-height="1066"
     id="namedview7158"
     showgrid="false"
     inkscape:zoom="0.89702955"
     inkscape:cx="291.88531"
     inkscape:cy="483.92782"
     inkscape:window-x="0"
     inkscape:window-y="14"
     inkscape:window-maximized="0"
     inkscape:current-layer="svg6613" />
  <defs
     id="defs6615" />
  <metadata
     id="metadata6618">
    <rdf:RDF>
      <cc:Work
         rdf:about="">
        <dc:format>image/svg+xml</dc:format>
        <dc:type
           rdf:resource="http://purl.org/dc/dcmitype/StillImage" />
        <dc:title></dc:title>
      </cc:Work>
    </rdf:RDF>
  </metadata>
  <path
     inkscape:connector-curvature="0"
     id="diamond-top"
     style="font-style:normal;font-variant:normal;font-weight:normal;font-stretch:normal;font-size:12.1298542px;line-height:125%;font-family:'TeX Gyre Pagella Math';-inkscape-font-specification:'TeX Gyre Pagella Math';letter-spacing:0px;word-spacing:0px;fill:#ffffff;fill-opacity:1;stroke:none;stroke-width:1px;stroke-linecap:butt;stroke-linejoin:miter;stroke-opacity:1"
     d="M 26.491191,11.168183 C 25.773469,10.649532 25.107946,10.074504 24.50767,9.4431022 23.894344,8.8229754 23.359315,8.1577483 22.889535,7.4586961 c -0.0783,0.02255 -0.143545,0.033825 -0.221842,0.033825 -0.0783,0 -0.156593,-0.011275 -0.22184,-0.033825 -0.469782,0.6990522 -1.01786,1.3642793 -1.618136,1.9844061 -0.600277,0.6314018 -1.2658,1.2064298 -1.983521,1.7363558 0.0261,0.0451 0.03915,0.11275 0.03915,0.169126 0,0.05638 -0.01305,0.11275 -0.03915,0.169125 0.717721,0.484826 1.383244,1.026028 1.983521,1.612331 0.600276,0.586301 1.135304,1.217703 1.618136,1.88293 0.06525,-0.02255 0.143543,-0.03383 0.22184,-0.03383 0.0783,0 0.143545,0.01128 0.221842,0.03383 0.46978,-0.665227 1.017859,-1.296629 1.618135,-1.88293 0.600276,-0.586303 1.265799,-1.127505 1.970472,-1.612331 -0.0261,-0.05638 -0.03915,-0.11275 -0.0261,-0.169125 0,-0.05638 0.01305,-0.124026 0.03915,-0.180401 z" />
  <path
     inkscape:connector-curvature="0"
     id="diamond-bottom"
     style="font-style:normal;font-variant:normal;font-weight:normal;font-stretch:normal;font-size:12.1298542px;line-height:125%;font-family:'TeX Gyre Pagella Math';-inkscape-font-specification:'TeX Gyre Pagella Math';letter-spacing:0px;word-spacing:0px;fill:#ffffff;fill-opacity:1;stroke:none;stroke-width:1px;stroke-linecap:butt;stroke-linejoin:miter;stroke-opacity:1"
     d="m 32.836796,78.782729 c 0.717721,0.518651 1.383245,1.093678 1.983521,1.72508 0.613325,0.620127 1.148354,1.285354 1.618135,1.984406 0.0783,-0.02255 0.143545,-0.03383 0.221842,-0.03383 0.0783,0 0.156594,0.01128 0.221841,0.03383 0.469781,-0.699052 1.01786,-1.364279 1.618135,-1.984406 0.600276,-0.631402 1.2658,-1.206429 1.983521,-1.736356 -0.0261,-0.0451 -0.03915,-0.11275 -0.03915,-0.169125 0,-0.05638 0.01305,-0.11275 0.03915,-0.169126 -0.717721,-0.484826 -1.383245,-1.026028 -1.983521,-1.61233 -0.600275,-0.586301 -1.135304,-1.217704 -1.618135,-1.88293 -0.06525,0.02255 -0.143544,0.03382 -0.221841,0.03382 -0.0783,0 -0.143545,-0.01127 -0.221842,-0.03382 -0.469781,0.665226 -1.017858,1.296629 -1.618135,1.88293 -0.600276,0.586302 -1.2658,1.127504 -1.970472,1.61233 0.0261,0.05638 0.03915,0.112751 0.0261,0.169126 0,0.05638 -0.01305,0.124026 -0.03915,0.180401 z" />
  <path
     inkscape:connector-curvature="0"
     id="heart-bottom"
     style="font-style:normal;font-variant:normal;font-weight:normal;font-stretch:normal;font-size:12.1298542px;line-height:125%;font-family:'TeX Gyre Pagella Math';-inkscape-font-specification:'TeX Gyre Pagella Math';letter-spacing:0px;word-spacing:0px;fill:#ffffff;fill-opacity:1;stroke:none;stroke-width:1px;stroke-linecap:butt;stroke-linejoin:miter;stroke-opacity:1"
     d="m 32.654103,80.417609 c 0,1.071128 0.796019,2.029506 1.957423,2.029506 0.835166,0 1.578986,-0.394626 1.957422,-1.003478 0.378434,0.608852 1.122254,1.003478 1.957422,1.003478 1.161403,0 1.957421,-0.958378 1.957421,-2.029506 0,-1.150054 -0.678572,-2.063332 -1.50069,-2.931509 -0.769919,-0.823079 -1.670334,-1.601056 -2.179263,-2.548158 -0.0783,0.02255 -0.156594,0.03382 -0.23489,0.03382 -0.0783,0 -0.156595,-0.01127 -0.234892,-0.03382 -0.508929,0.947102 -1.409343,1.725079 -2.179262,2.548158 -0.822118,0.868177 -1.500691,1.781455 -1.500691,2.931509 z" />
  <path
     inkscape:connector-curvature="0"
     id="heart-top"
     style="font-style:normal;font-variant:normal;font-weight:normal;font-stretch:normal;font-size:12.1298542px;line-height:125%;font-family:'TeX Gyre Pagella Math';-inkscape-font-specification:'TeX Gyre Pagella Math';letter-spacing:0px;word-spacing:0px;fill:#ffffff;fill-opacity:1;stroke:none;stroke-width:1px;stroke-linecap:butt;stroke-linejoin:miter;stroke-opacity:1"
     d="m 26.673883,9.5333026 c 0,-1.0711283 -0.796018,-2.0295063 -1.957422,-2.0295063 -0.835166,0 -1.578986,0.3946262 -1.957422,1.0034781 -0.378435,-0.6088519 -1.122254,-1.0034781 -1.957421,-1.0034781 -1.161404,0 -1.957422,0.958378 -1.957422,2.0295063 0,1.1500534 0.678572,2.0633314 1.50069,2.9315094 0.769919,0.823078 1.670333,1.601056 2.179263,2.548158 0.0783,-0.02255 0.156594,-0.03383 0.23489,-0.03383 0.0783,0 0.156594,0.01128 0.234891,0.03383 0.50893,-0.947102 1.409344,-1.72508 2.179263,-2.548158 0.822118,-0.868178 1.50069,-1.781456 1.50069,-2.9315094 z" />
  <path
     inkscape:connector-curvature="0"
     id="spades-bottom"
     style="font-style:normal;font-variant:normal;font-weight:normal;font-stretch:normal;font-size:12.1298542px;line-height:125%;font-family:'TeX Gyre Pagella Math';-inkscape-font-specification:'TeX Gyre Pagella Math';letter-spacing:0px;word-spacing:0px;fill:#ffffff;fill-opacity:1;stroke:none;stroke-width:1px;stroke-linecap:butt;stroke-linejoin:miter;stroke-opacity:1"
     d="m 32.132124,77.7567 c 0,1.104954 0.76992,1.871656 1.683382,2.593259 0.835168,0.653951 1.787779,1.262803 2.257561,2.119706 0.0783,-0.02255 0.156593,-0.03383 0.234891,-0.03383 0.0783,0 0.156594,0.01127 0.23489,0.03383 0.469782,-0.856903 1.422394,-1.465755 2.257561,-2.119706 0.913464,-0.721603 1.683382,-1.488305 1.683382,-2.593259 0,-0.890727 -0.665523,-1.691255 -1.631185,-1.691255 -0.600276,0 -1.161404,0.259326 -1.513739,0.676502 l -0.365386,0 c 0.0522,-0.529927 0.300138,-1.026029 0.704672,-1.431929 -0.0522,-0.05638 -0.104397,-0.112751 -0.143544,-0.169126 -0.03915,-0.06765 -0.0522,-0.1353 -0.06525,-0.20295 -0.391485,0.02255 -0.76992,0.03382 -1.161404,0.03382 l -1.161404,-0.03382 c -0.01305,0.06765 -0.0261,0.1353 -0.06525,0.20295 -0.03915,0.05638 -0.09135,0.11275 -0.143544,0.169126 0.404534,0.4059 0.652475,0.902002 0.704672,1.431929 l -0.365385,0 c -0.352336,-0.417176 -0.913464,-0.676502 -1.51374,-0.676502 -0.965661,0 -1.631185,0.800528 -1.631185,1.691255 z" />
  <path
     inkscape:connector-curvature="0"
     id="spades-top"
     style="font-style:normal;font-variant:normal;font-weight:normal;font-stretch:normal;font-size:12.1298542px;line-height:125%;font-family:'TeX Gyre Pagella Math';-inkscape-font-specification:'TeX Gyre Pagella Math';letter-spacing:0px;word-spacing:0px;fill:none;fill-opacity:1;stroke:none;stroke-width:1px;stroke-linecap:butt;stroke-linejoin:miter;stroke-opacity:1"
     d="m 27.195863,12.194211 c 0,-1.104953 -0.76992,-1.871656 -1.683383,-2.5932583 -0.835166,-0.6539519 -1.787779,-1.2628038 -2.25756,-2.1197065 -0.0783,0.02255 -0.156594,0.033825 -0.234891,0.033825 -0.0783,0 -0.156593,-0.011275 -0.23489,-0.033825 -0.469782,0.8569027 -1.422393,1.4657546 -2.257561,2.1197065 -0.913463,0.7216023 -1.683382,1.4883053 -1.683382,2.5932583 0,0.890728 0.665523,1.691256 1.631185,1.691256 0.600276,0 1.161404,-0.259326 1.51374,-0.676502 l 0.365385,0 c -0.0522,0.529926 -0.300138,1.026027 -0.704672,1.431929 0.0522,0.05638 0.104397,0.112751 0.143544,0.169126 0.03915,0.06765 0.0522,0.1353 0.06525,0.20295 0.391485,-0.02255 0.76992,-0.03383 1.161404,-0.03383 l 1.161404,0.03383 c 0.01305,-0.06765 0.0261,-0.1353 0.06525,-0.20295 0.03915,-0.05638 0.09135,-0.112751 0.143545,-0.169126 -0.404535,-0.405902 -0.652474,-0.902003 -0.704672,-1.431929 l 0.365386,0 c 0.352336,0.417176 0.913462,0.676502 1.513739,0.676502 0.965662,0 1.631186,-0.800528 1.631186,-1.691256 z" />
  <g
     id="layer1">
    <g
       id="purple-zero">
      <rect
         style="fill:#ffffff;fill-opacity:1;fill-rule:evenodd;stroke:#000000;stroke-width:0.5;stroke-miterlimit:4;stroke-dasharray:none"
         id="card-border"
         y="0"
         x="0"
         ry="10"
         rx="10"
         height="90"
         width="60" />
      <rect
         card-fill="rect3757-5-07-1-97"
         style="fill:#0000ff;fill-opacity:1;fill-rule:evenodd;stroke:none"
         id="card-purple-fill"
         y="5"
         x="5"
         ry="5"
         rx="5"
         height="80"
         width="50" />
      <path
         style="fill:#ffffff;fill-opacity:1;fill-rule:evenodd;stroke:none"
         id="card-whitecenter"
         d="m 45,20 c -22.09139,0 -40,17.90861 -40,40 0,5.52285 4.47715,10 10,10 22.09139,0 40,-17.90861 40,-40 0,-5.52285 -4.47715,-10 -10,-10 z" />
      <path
         style="fill:#0000ff;fill-opacity:1;fill-rule:evenodd;stroke:none"
         id="card-center-zero"
         d="m 30,30 c -5.52285,0 -10,4.47715 -10,10 0,5.52285 4.47715,10 10,10 1.817,0 3.53157,-0.49674 5,-1.34375 l 0,1.34375 c 0,2.76142 -2.23858,5 -5,5 -1.95426,0 -3.6151,-1.14704 -4.4375,-2.78125 l -4.5,2.25 c 1.63927,3.28436 5.01726,5.53125 8.9375,5.53125 5.52285,0 10,-4.47715 10,-10 l 0,-10 c 0,-5.52285 -4.47715,-10 -10,-10 z m 0,5 c 2.76142,0 5,2.23858 5,5 0,2.76142 -2.23858,5 -5,5 -2.76142,0 -5,-2.23858 -5,-5 0,-2.76142 2.23858,-5 5,-5 z m -5,26 0,2 10,0 0,-2 -10,0 z" />
      <path
         style="fill:#ffffff;fill-opacity:1;fill-rule:evenodd;stroke:none"
         id="card-topleft-zero"
         d="m 12.5,22.5 c 2.76143,0 5,-2.23859 5,-5.00001 l 0,-4.99998 c 0,-2.76143 -2.23857,-5.00001 -5,-5.00001 -2.76142,0 -5,2.23858 -5,5.00001 0,2.76141 2.23858,4.99998 5,4.99998 0.9085,0 1.76579,-0.24837 2.5,-0.67187 l 0,0.67187 c 0,1.38071 -1.11929,2.5 -2.5,2.5 -0.97712,0 -1.80755,-0.57351 -2.21874,-1.39062 l -2.25,1.125 c 0.81962,1.64218 2.50862,2.76563 4.46874,2.76563 z m 0,-7.5 c -1.3807,0 -2.49999,-1.11928 -2.49999,-2.49999 0,-1.38071 1.11929,-2.50001 2.49999,-2.50001 1.38071,0 2.5,1.1193 2.5,2.50001 0,1.38071 -1.11929,2.49999 -2.5,2.49999 z" />
      <path
         style="fill:#ffffff;fill-opacity:1;fill-rule:evenodd;stroke:none"
         id="card-bottomright-zero"
         d="m 47.5,67.5 c -2.76143,0 -5,2.23859 -5,5.00001 l 0,4.99998 c 0,2.76143 2.23857,5.00001 5,5.00001 2.76142,0 5,-2.23858 5,-5.00001 0,-2.76141 -2.23858,-4.99998 -5,-4.99998 -0.9085,0 -1.76579,0.24837 -2.5,0.67187 l 0,-0.67187 c 0,-1.38071 1.11929,-2.5 2.5,-2.5 0.97712,0 1.80755,0.57351 2.21874,1.39062 l 2.25,-1.125 c -0.81962,-1.64218 -2.50862,-2.76563 -4.46874,-2.76563 z m 0,7.5 c 1.3807,0 2.49999,1.11928 2.49999,2.49999 0,1.38071 -1.11929,2.50001 -2.49999,2.50001 -1.38071,0 -2.5,-1.1193 -2.5,-2.50001 0,-1.38071 1.11929,-2.49999 2.5,-2.49999 z" />
    </g>
  </g>
  <text
     xml:space="preserve"
     style="font-style:normal;font-weight:normal;font-size:3.26730609px;line-height:125%;font-family:sans-serif;letter-spacing:0px;word-spacing:0px;fill:#000000;fill-opacity:1;stroke:none;stroke-width:1px;stroke-linecap:butt;stroke-linejoin:miter;stroke-opacity:1"
     x="-33.404732"
     y="-30.482075"
     id="text6004-0-4"
     sodipodi:linespacing="125%"
     transform="scale(1.0758151,0.92952775)"><tspan
       sodipodi:role="line"
       id="tspan6006-1-7"
       x="-33.404732"
       y="-30.482075"
       style="font-style:normal;font-variant:normal;font-weight:normal;font-stretch:normal;font-size:5.71778536px;font-family:FontAwesome;-inkscape-font-specification:FontAwesome"><tspan
         style="font-style:normal;font-variant:normal;font-weight:normal;font-stretch:normal;font-family:'TeX Gyre Pagella Math';-inkscape-font-specification:'TeX Gyre Pagella Math'"
         id="tspan6254-9-71">♡</tspan><tspan
         style="font-style:normal;font-variant:normal;font-weight:normal;font-stretch:normal;font-family:'TeX Gyre Termes Math';-inkscape-font-specification:'TeX Gyre Termes Math'"
         id="tspan6008-7-64">♢♧♤</tspan><tspan
         id="tspan6220-5-9"
         style="font-style:normal;font-variant:normal;font-weight:normal;font-stretch:normal;font-family:'TeX Gyre Pagella Math';-inkscape-font-specification:'TeX Gyre Pagella Math'">♠♥♦♣</tspan></tspan></text>
  <text
     transform="scale(1.0758151,0.92952775)"
     sodipodi:linespacing="125%"
     id="text7848"
     y="-30.482075"
     x="-33.404732"
     style="font-style:normal;font-weight:normal;font-size:3.26730609px;line-height:125%;font-family:sans-serif;letter-spacing:0px;word-spacing:0px;fill:#000000;fill-opacity:1;stroke:none;stroke-width:1px;stroke-linecap:butt;stroke-linejoin:miter;stroke-opacity:1"
     xml:space="preserve"><tspan
       style="font-style:normal;font-variant:normal;font-weight:normal;font-stretch:normal;font-size:5.71778536px;font-family:FontAwesome;-inkscape-font-specification:FontAwesome"
       y="-30.482075"
       x="-33.404732"
       id="tspan7850"
       sodipodi:role="line"><tspan
         id="tspan7852"
         style="font-style:normal;font-variant:normal;font-weight:normal;font-stretch:normal;font-family:'TeX Gyre Pagella Math';-inkscape-font-specification:'TeX Gyre Pagella Math'">♡</tspan><tspan
         id="tspan7854"
         style="font-style:normal;font-variant:normal;font-weight:normal;font-stretch:normal;font-family:'TeX Gyre Termes Math';-inkscape-font-specification:'TeX Gyre Termes Math'">♢♧♤</tspan><tspan
         style="font-style:normal;font-variant:normal;font-weight:normal;font-stretch:normal;font-family:'TeX Gyre Pagella Math';-inkscape-font-specification:'TeX Gyre Pagella Math'"
         id="tspan7856">♠♥♦♣</tspan></tspan></text>
  <text
     xml:space="preserve"
     style="font-style:normal;font-weight:normal;font-size:3.26730609px;line-height:125%;font-family:sans-serif;letter-spacing:0px;word-spacing:0px;fill:#000000;fill-opacity:1;stroke:none;stroke-width:1px;stroke-linecap:butt;stroke-linejoin:miter;stroke-opacity:1"
     x="26.139738"
     y="-13.265507"
     id="text6004-7"
     sodipodi:linespacing="125%"
     transform="scale(1.0758151,0.92952775)"><tspan
       sodipodi:role="line"
       id="tspan6006-2"
       x="26.139738"
       y="-13.265507"
       style="font-style:normal;font-variant:normal;font-weight:normal;font-stretch:normal;font-size:5.71778536px;font-family:FontAwesome;-inkscape-font-specification:FontAwesome"></tspan></text>
  <path
     inkscape:connector-curvature="0"
     id="clubs-top"
     style="font-style:normal;font-variant:normal;font-weight:normal;font-stretch:normal;font-size:12.1298542px;line-height:125%;font-family:'TeX Gyre Pagella Math';-inkscape-font-specification:'TeX Gyre Pagella Math';letter-spacing:0px;word-spacing:0px;fill:#ffffff;fill-opacity:1;stroke:none;stroke-width:1px;stroke-linecap:butt;stroke-linejoin:miter;stroke-opacity:1"
     d="m 27.743941,12.104011 c 0,-1.116229 -0.613326,-1.691255 -1.709481,-1.691255 -0.404535,0 -0.743821,0.07893 -1.01786,0.248051 l -0.23489,-0.259326 c 0.326236,-0.281876 0.508929,-0.6990527 0.508929,-1.2289794 0,-1.1049536 -0.691622,-1.6912554 -1.996571,-1.6912554 -1.304947,0 -1.996571,0.5863018 -1.996571,1.6912554 0,0.5299267 0.182693,0.9471034 0.508931,1.2289794 l -0.234892,0.259326 c -0.274039,-0.169126 -0.613325,-0.248051 -1.017858,-0.248051 -1.096157,0 -1.709482,0.575026 -1.709482,1.691255 0,1.104954 0.613325,1.691255 1.709482,1.691255 1.017858,0 1.618135,-0.507376 1.696432,-1.465754 l 0.391484,0 c -0.03915,0.811802 -0.300138,1.623605 -0.756869,2.345208 0.06525,0.0451 0.117445,0.0902 0.156593,0.146575 0.0522,0.05638 0.0783,0.124025 0.09135,0.191675 0.391484,-0.02255 0.76992,-0.03383 1.161403,-0.03383 0.391485,0 0.76992,0.01128 1.148354,0.03383 0.0261,-0.06765 0.0522,-0.1353 0.104397,-0.191675 0.03915,-0.05638 0.09135,-0.101476 0.156594,-0.146575 -0.456732,-0.721603 -0.717722,-1.533406 -0.756869,-2.345208 l 0.391483,0 c 0.0783,0.958378 0.678574,1.465754 1.696434,1.465754 1.096155,0 1.709481,-0.586301 1.709481,-1.691255 z" />
  <text
     xml:space="preserve"
     style="font-style:normal;font-weight:normal;font-size:12.1298542px;line-height:125%;font-family:sans-serif;letter-spacing:0px;word-spacing:0px;fill:#ffffff;fill-opacity:1;stroke:none;stroke-width:1px;stroke-linecap:butt;stroke-linejoin:miter;stroke-opacity:1"
     x="16.545815"
     y="16.15118"
     id="text7858"
     sodipodi:linespacing="125%"
     transform="scale(1.0758151,0.92952775)"><tspan
       sodipodi:role="line"
       id="tspan7860"
       x="16.545815"
       y="16.15118"
       style="font-style:normal;font-variant:normal;font-weight:normal;font-stretch:normal;font-size:12.1298542px;font-family:FontAwesome;-inkscape-font-specification:FontAwesome;fill:#ffffff"><tspan
         style="font-style:normal;font-variant:normal;font-weight:normal;font-stretch:normal;font-size:12.1298542px;font-family:'TeX Gyre Pagella Math';-inkscape-font-specification:'TeX Gyre Pagella Math';fill:#ffffff"
         id="tspan7862">♣</tspan></tspan></text>
  <path
     inkscape:connector-curvature="0"
     id="questions-top"
     style="font-style:normal;font-variant:normal;font-weight:normal;font-stretch:normal;font-size:medium;line-height:125%;font-family:FontAwesome;-inkscape-font-specification:FontAwesome;letter-spacing:0px;word-spacing:0px;fill:#00ffff;fill-opacity:1;stroke:none;stroke-width:1px;stroke-linecap:butt;stroke-linejoin:miter;stroke-opacity:1"
     d="m 24.509014,13.251245 c 0,-0.138422 -0.13867,-0.251675 -0.308155,-0.251675 l -1.848936,0 c -0.169486,0 -0.308157,0.113253 -0.308157,0.251675 l 0,1.51005 c 0,0.138421 0.138671,0.251674 0.308157,0.251674 l 1.848936,0 c 0.169485,0 0.308155,-0.113253 0.308155,-0.251674 l 0,-1.51005 z m 2.434434,-3.7751242 c 0,-1.4408386 -1.848937,-2.5167488 -3.497572,-2.5167488 -1.571596,0 -2.742588,0.5473929 -3.57461,1.6736382 -0.08474,0.1132536 -0.05392,0.2516749 0.07704,0.3334692 l 1.26344,0.7864838 c 0.06163,0.031459 0.123263,0.050337 0.192597,0.050337 0.08474,0 0.17719,-0.037748 0.238821,-0.10067 0.454531,-0.4655992 0.639424,-0.6166038 0.824317,-0.7235656 0.169486,-0.094378 0.485347,-0.1824642 0.832022,-0.1824642 0.624015,0 1.186401,0.3145937 1.186401,0.6669385 0,0.4026802 -0.246525,0.6103121 -0.839725,0.8305271 -0.677944,0.251675 -1.602412,0.90603 -1.602412,1.667347 l 0,0.283134 c 0,0.138421 0.107854,0.352345 0.277341,0.352345 l 1.848936,0 c 0.177189,0 0.308156,-0.163588 0.308156,-0.30201 0,-0.182465 0.285044,-0.616603 0.739574,-0.830527 0.731871,-0.33347 1.725675,-0.792776 1.725675,-1.9882327 z" />
  <path
     inkscape:connector-curvature="0"
     id="clubs-bottom"
     style="font-style:normal;font-variant:normal;font-weight:normal;font-stretch:normal;font-size:12.1298542px;line-height:125%;font-family:'TeX Gyre Pagella Math';-inkscape-font-specification:'TeX Gyre Pagella Math';letter-spacing:0px;word-spacing:0px;fill:#ffffff;fill-opacity:1;stroke:none;stroke-width:1px;stroke-linecap:butt;stroke-linejoin:miter;stroke-opacity:1"
     d="m 31.584045,77.846901 c 0,1.116228 0.613327,1.691255 1.709482,1.691255 0.404535,0 0.743821,-0.07893 1.01786,-0.248051 l 0.234891,0.259326 c -0.326237,0.281876 -0.50893,0.699052 -0.50893,1.228979 0,1.104954 0.691622,1.691255 1.996571,1.691255 1.304948,0 1.99657,-0.586301 1.99657,-1.691255 0,-0.529927 -0.182693,-0.947103 -0.50893,-1.228979 l 0.234891,-0.259326 c 0.274039,0.169126 0.613326,0.248051 1.017859,0.248051 1.096157,0 1.709482,-0.575027 1.709482,-1.691255 0,-1.104954 -0.613325,-1.691256 -1.709482,-1.691256 -1.017859,0 -1.618135,0.507376 -1.696432,1.465755 l -0.391485,0 c 0.03915,-0.811803 0.300139,-1.623605 0.756871,-2.345208 -0.06525,-0.0451 -0.117446,-0.0902 -0.156594,-0.146575 -0.0522,-0.05638 -0.0783,-0.124025 -0.09135,-0.191675 -0.391485,0.02255 -0.76992,0.03382 -1.161404,0.03382 -0.391485,0 -0.76992,-0.01127 -1.148354,-0.03382 -0.0261,0.06765 -0.0522,0.1353 -0.104397,0.191675 -0.03915,0.05638 -0.09135,0.101475 -0.156595,0.146575 0.456732,0.721603 0.717722,1.533405 0.756871,2.345208 l -0.391485,0 c -0.0783,-0.958379 -0.678573,-1.465755 -1.696433,-1.465755 -1.096155,0 -1.709482,0.586302 -1.709482,1.691256 z" />
  <path
     inkscape:connector-curvature="0"
     id="questions-bottom"
     style="font-style:normal;font-variant:normal;font-weight:normal;font-stretch:normal;font-size:medium;line-height:125%;font-family:FontAwesome;-inkscape-font-specification:FontAwesome;letter-spacing:0px;word-spacing:0px;fill:#00ffff;fill-opacity:1;stroke:none;stroke-width:1px;stroke-linecap:butt;stroke-linejoin:miter;stroke-opacity:1"
     d="m 34.913723,76.699665 c 0,0.138422 0.131078,0.251676 0.291283,0.251676 l 1.747698,0 c 0.160206,0 0.291283,-0.113254 0.291283,-0.251676 l 0,-1.510049 c 0,-0.138421 -0.131077,-0.251674 -0.291283,-0.251674 l -1.747698,0 c -0.160205,0 -0.291283,0.113253 -0.291283,0.251674 l 0,1.510049 z m -2.301136,3.775124 c 0,1.440839 1.747698,2.516749 3.306063,2.516749 1.485543,0 2.592418,-0.547393 3.378883,-1.673638 0.0801,-0.113253 0.05097,-0.251675 -0.07282,-0.333469 L 38.03045,80.197947 c -0.05826,-0.03145 -0.116513,-0.05033 -0.182052,-0.05033 -0.08011,0 -0.167487,0.03775 -0.225744,0.10067 -0.429642,0.465598 -0.604413,0.616604 -0.779182,0.723565 -0.160206,0.09438 -0.458771,0.182465 -0.786464,0.182465 -0.589849,0 -1.12144,-0.314594 -1.12144,-0.666939 0,-0.40268 0.233027,-0.610311 0.793747,-0.830528 0.640822,-0.251674 1.514671,-0.906029 1.514671,-1.667346 l 0,-0.283134 c 0,-0.138421 -0.101944,-0.352345 -0.262154,-0.352345 l -1.747699,0 c -0.167488,0 -0.291283,0.163589 -0.291283,0.30201 0,0.182465 -0.269437,0.616603 -0.699079,0.830528 -0.691797,0.333469 -1.631185,0.792775 -1.631185,1.988231 z" />
</svg>
