<?xml version="1.0" encoding="UTF-8" standalone="no"?>
<svg
   xmlns:dc="http://purl.org/dc/elements/1.1/"
   xmlns:cc="http://creativecommons.org/ns#"
   xmlns:rdf="http://www.w3.org/1999/02/22-rdf-syntax-ns#"
   xmlns:svg="http://www.w3.org/2000/svg"
   xmlns="http://www.w3.org/2000/svg"
   version="1.1"
   id="svg6613"
   viewBox="0 0 62 92"
   height="297mm"
   width="210mm">
  <defs
     id="defs6615" />
  <metadata
     id="metadata6618">
    <rdf:RDF>
      <cc:Work
         rdf:about="">
        <dc:format>image/svg+xml</dc:format>
        <dc:type
           rdf:resource="http://purl.org/dc/dcmitype/StillImage" />
        <dc:title></dc:title>
      </cc:Work>
    </rdf:RDF>
  </metadata>
  <g
     id="layer1">

    <g
       id="purple-zero">
      <rect
         style="fill:#ffffff;fill-opacity:0.7;fill-rule:evenodd;stroke:#000000;stroke-opacity:0.5;stroke-width:0.5;stroke-miterlimit:4;stroke-dasharray:none"
         id="card-border"
         y="0"
         x="0"
         ry="10"
         rx="10"
         height="90"
         width="60" />

      <rect
         card-fill="rect3757-5-07-1-97"
         style="fill:#ffaa00;fill-opacity:1;fill-rule:evenodd;stroke:none"
         id="card-purple-fill"
         y="5"
         x="5"
         ry="5"
         rx="5"
         height="80"
         width="50" />
      
      <path
         style="fill:#ffffff;fill-opacity:0.7;fill-rule:evenodd;stroke:none"
         id="card-whitecenter"
         d="m 45,20 c -22.09139,0 -40,17.90861 -40,40 0,5.52285 4.47715,10 10,10 22.09139,0 40,-17.90861 40,-40 0,-5.52285 -4.47715,-10 -10,-10 z" />

      <path
         style="fill:#ffaa00;fill-opacity:1;fill-rule:evenodd;stroke:none"
         id="card-center-zero"
         d="m 30,30 c -5.52285,0 -10,4.47715 -10,10 l 0,10 c 0,5.52285 4.47715,10 10,10 5.52285,0 10,-4.47715 10,-10 0,-5.52285 -4.47715,-10 -10,-10 -1.817,0 -3.53157,0.49674 -5,1.34375 l 0,-1.34375 c 0,-2.76142 2.23858,-5 5,-5 1.95426,0 3.6151,1.14704 4.4375,2.78125 l 4.5,-2.25 c -1.63927,-3.28436 -5.01726,-5.53125 -8.9375,-5.53125 z m 0,15 c 2.76142,0 5,2.23858 5,5 0,2.76142 -2.23858,5 -5,5 -2.76142,0 -5,-2.23858 -5,-5 0,-2.76142 2.23858,-5 5,-5 z m -5,16 0,2 10,0 0,-2 -10,0 z" />

      <path
         style="fill:#ffffff;fill-opacity:0.7;fill-rule:evenodd;stroke:none"
         id="card-topleft-zero"
         d="m 12.5,7.5 c -2.76143,0 -5,2.23859 -5,5.00001 l 0,4.99998 c 0,2.76143 2.23857,5.00001 5,5.00001 2.76142,0 5,-2.23858 5,-5.00001 0,-2.76141 -2.23858,-4.99998 -5,-4.99998 -0.9085,0 -1.76579,0.24837 -2.5,0.67187 l 0,-0.67187 c 0,-1.38071 1.11929,-2.5 2.5,-2.5 0.97712,0 1.80755,0.57351 2.21874,1.39062 l 2.25,-1.125 c -0.81962,-1.64218 -2.50862,-2.76563 -4.46874,-2.76563 z m 0,7.5 c 1.3807,0 2.49999,1.11928 2.49999,2.49999 0,1.38071 -1.11929,2.50001 -2.49999,2.50001 -1.38071,0 -2.5,-1.1193 -2.5,-2.50001 0,-1.38071 1.11929,-2.49999 2.5,-2.49999 z" />
         
 <path id="diamond-top" d="m26.5 11.2c-0.7-0.6-1.4-1.1-2-1.76-0.6-0.62-1.1-1.28-1.6-1.98-0.0783 0.0226-0.144 0.0338-0.222 0.0338-0.0783 0-0.157-0.0113-0.222-0.0338-0.47 0.699-1.02 1.36-1.62 1.98-0.6 0.631-1.27 1.21-1.98 1.74 0.0261 0.0451 0.0392 0.113 0.0392 0.169 0 0.0564-0.013 0.113-0.0392 0.169 0.718 0.485 1.38 1.03 1.98 1.61 0.6 0.586 1.14 1.22 1.62 1.88 0.0652-0.0226 0.144-0.0338 0.222-0.0338 0.0783 0 0.144 0.0113 0.222 0.0338 0.47-0.665 1.02-1.3 1.62-1.88 0.6-0.586 1.27-1.13 1.97-1.61-0.0261-0.0564-0.0392-0.113-0.0261-0.169 0-0.0564 0.013-0.124 0.0392-0.18z" fill="#fff" style="fill-opacity:0.7"/>
 
      <path
         style="fill:#ffffff;fill-opacity:0.7;fill-rule:evenodd;stroke:none"
         id="card-bottomright-zero"
         d="m 47.5,82.5 c 2.76143,0 5,-2.23859 5,-5.00001 l 0,-4.99998 c 0,-2.76143 -2.23857,-5.00001 -5,-5.00001 -2.76142,0 -5,2.23858 -5,5.00001 0,2.76141 2.23858,4.99998 5,4.99998 0.9085,0 1.76579,-0.24837 2.5,-0.67187 l 0,0.67187 c 0,1.38071 -1.11929,2.5 -2.5,2.5 -0.97712,0 -1.80755,-0.57351 -2.21874,-1.39062 l -2.25,1.125 c 0.81962,1.64218 2.50862,2.76563 4.46874,2.76563 z m 0,-7.5 c -1.3807,0 -2.49999,-1.11928 -2.49999,-2.49999 0,-1.38071 1.11929,-2.50001 2.49999,-2.50001 1.38071,0 2.5,1.1193 2.5,2.50001 0,1.38071 -1.11929,2.49999 -2.5,2.49999 z" />

     <path id="diamond-bottom" d="m32.8 78.8c0.718 0.519 1.38 1.09 1.98 1.73 0.613 0.62 1.15 1.29 1.62 1.98 0.0783-0.0226 0.144-0.0338 0.222-0.0338 0.0783 0 0.157 0.0113 0.222 0.0338 0.47-0.699 1.02-1.36 1.62-1.98 0.6-0.631 1.27-1.21 1.98-1.74-0.0261-0.0451-0.0392-0.113-0.0392-0.169 0-0.0564 0.013-0.113 0.0392-0.169-0.718-0.485-1.38-1.03-1.98-1.61-0.6-0.586-1.14-1.22-1.62-1.88-0.0652 0.0226-0.144 0.0338-0.222 0.0338-0.0783 0-0.144-0.0113-0.222-0.0338-0.47 0.665-1.02 1.3-1.62 1.88-0.6 0.586-1.27 1.13-1.97 1.61 0.0261 0.0564 0.0392 0.113 0.0261 0.169 0 0.0564-0.013 0.124-0.0392 0.18z" fill="#fff" style="fill-opacity:0.7"/>
     
    </g>
  </g>
</svg>
