<?xml version="1.0" encoding="UTF-8" standalone="no"?>
<svg
   xmlns:dc="http://purl.org/dc/elements/1.1/"
   xmlns:cc="http://creativecommons.org/ns#"
   xmlns:rdf="http://www.w3.org/1999/02/22-rdf-syntax-ns#"
   xmlns:svg="http://www.w3.org/2000/svg"
   xmlns="http://www.w3.org/2000/svg"
   version="1.1"
   id="svg6613"
   viewBox="0 0 62 92"
   height="297mm"
   width="210mm">
  <defs
     id="defs6615" />
  <metadata
     id="metadata6618">
    <rdf:RDF>
      <cc:Work
         rdf:about="">
        <dc:format>image/svg+xml</dc:format>
        <dc:type
           rdf:resource="http://purl.org/dc/dcmitype/StillImage" />
        <dc:title></dc:title>
      </cc:Work>
    </rdf:RDF>
  </metadata>
  <g
     id="layer1">

    <g
       id="purple-zero">
      <rect
         style="fill:#ffffff;fill-opacity:0.7;fill-rule:evenodd;stroke:#000000;stroke-opacity:0.5;stroke-width:0.5;stroke-miterlimit:4;stroke-dasharray:none"
         id="card-border"
         y="0"
         x="0"
         ry="10"
         rx="10"
         height="90"
         width="60" />

      <rect
         card-fill="rect3757-5-07-1-97"
         style="fill:#55aa55;fill-opacity:1;fill-rule:evenodd;stroke:none"
         id="card-purple-fill"
         y="5"
         x="5"
         ry="5"
         rx="5"
         height="80"
         width="50" />
      
      <path
         style="fill:#ffffff;fill-opacity:0.7;fill-rule:evenodd;stroke:none"
         id="card-whitecenter"
         d="m 45,20 c -22.09139,0 -40,17.90861 -40,40 0,5.52285 4.47715,10 10,10 22.09139,0 40,-17.90861 40,-40 0,-5.52285 -4.47715,-10 -10,-10 z" />

      <path
         style="fill:#55aa55;fill-opacity:1;fill-rule:evenodd;stroke:none"
         id="card-center-zero"
         d="m 21.826706,30.224075 15.795148,0 q 0,0.15355 0.02028,0.329033 0.02028,0.153548 0.02028,0.350968 0.02028,0.175485 0.02028,0.394839 0,0.372904 -0.141934,1.140646 -0.121657,0.745807 -0.567733,1.732905 -1.682923,-0.06581 -3.487504,-0.131613 -1.54099,-0.04387 -3.406399,-0.08775 -1.865409,-0.06581 -3.649713,-0.06581 l 0,8.993555 q 0.588009,0 1.317952,0 0.750219,-0.02194 1.54099,-0.04387 0.811047,-0.02194 1.622095,-0.04387 0.811047,-0.02194 1.581542,-0.04387 1.784305,-0.06581 3.66999,-0.109678 0,0.175485 0.02028,0.372903 0.02028,0.175485 0.02028,0.416775 0.02028,0.219356 0.02028,0.460646 0,0.109678 -0.04055,0.438709 -0.02028,0.307098 -0.101381,0.701936 -0.06083,0.39484 -0.162209,0.789679 -0.08111,0.394838 -0.202762,0.658064 -1.885685,0 -3.629437,-0.02194 -0.750219,0 -1.54099,0 -0.790772,0 -1.540991,0 -0.729942,-0.02194 -1.399056,-0.02194 -0.669114,0 -1.176019,0 l 0,9.827103 q 1.784304,0 3.751094,-0.06581 1.987066,-0.06581 3.690266,-0.131613 1.987066,-0.08774 3.913304,-0.197418 0,0.197418 0.02028,0.416773 0.02028,0.175485 0.02028,0.438711 0.02028,0.24129 0.02028,0.482581 0,0.460645 -0.06083,1.206452 -0.06083,0.745807 -0.263591,1.601292 l -15.693767,0 0,-29.788408 z" />

<g id="mat" transform="matrix(0.5,0,0,0.5,-2.5,-7.5)">

      <path
         style="fill:#ffffff;fill-opacity:0.7;fill-rule:evenodd;stroke:none"
         id="card-topleft-zero"
         d="m 21.826706,30.224075 15.795148,0 q 0,0.15355 0.02028,0.329033 0.02028,0.153548 0.02028,0.350968 0.02028,0.175485 0.02028,0.394839 0,0.372904 -0.141934,1.140646 -0.121657,0.745807 -0.567733,1.732905 -1.682923,-0.06581 -3.487504,-0.131613 -1.54099,-0.04387 -3.406399,-0.08775 -1.865409,-0.06581 -3.649713,-0.06581 l 0,8.993555 q 0.588009,0 1.317952,0 0.750219,-0.02194 1.54099,-0.04387 0.811047,-0.02194 1.622095,-0.04387 0.811047,-0.02194 1.581542,-0.04387 1.784305,-0.06581 3.66999,-0.109678 0,0.175485 0.02028,0.372903 0.02028,0.175485 0.02028,0.416775 0.02028,0.219356 0.02028,0.460646 0,0.109678 -0.04055,0.438709 -0.02028,0.307098 -0.101381,0.701936 -0.06083,0.39484 -0.162209,0.789679 -0.08111,0.394838 -0.202762,0.658064 -1.885685,0 -3.629437,-0.02194 -0.750219,0 -1.54099,0 -0.790772,0 -1.540991,0 -0.729942,-0.02194 -1.399056,-0.02194 -0.669114,0 -1.176019,0 l 0,9.827103 q 1.784304,0 3.751094,-0.06581 1.987066,-0.06581 3.690266,-0.131613 1.987066,-0.08774 3.913304,-0.197418 0,0.197418 0.02028,0.416773 0.02028,0.175485 0.02028,0.438711 0.02028,0.24129 0.02028,0.482581 0,0.460645 -0.06083,1.206452 -0.06083,0.745807 -0.263591,1.601292 l -15.693767,0 0,-29.788408 z" />
         </g>
<path id="heart-top" d="m26.7 9.53c0-1.07-0.796-2.03-1.96-2.03-0.835 0-1.58 0.395-1.96 1-0.378-0.609-1.12-1-1.96-1-1.16 0-1.96 0.958-1.96 2.03 0 1.15 0.679 2.06 1.5 2.93 0.77 0.823 1.67 1.6 2.18 2.55 0.0783-0.0226 0.157-0.0338 0.235-0.0338 0.0783 0 0.157 0.0113 0.235 0.0338 0.509-0.947 1.41-1.73 2.18-2.55 0.822-0.868 1.5-1.78 1.5-2.93z" fill="#fff" style="fill-opacity:0.7"/>
 
<g id="mat2" transform="matrix(-0.5,0,0,-0.5,62.5,96.8)">

      <path
         style="fill:#ffffff;fill-opacity:0.7;fill-rule:evenodd;stroke:none"
         id="card-bottomright-zero"
         d="m 21.826706,30.224075 15.795148,0 q 0,0.15355 0.02028,0.329033 0.02028,0.153548 0.02028,0.350968 0.02028,0.175485 0.02028,0.394839 0,0.372904 -0.141934,1.140646 -0.121657,0.745807 -0.567733,1.732905 -1.682923,-0.06581 -3.487504,-0.131613 -1.54099,-0.04387 -3.406399,-0.08775 -1.865409,-0.06581 -3.649713,-0.06581 l 0,8.993555 q 0.588009,0 1.317952,0 0.750219,-0.02194 1.54099,-0.04387 0.811047,-0.02194 1.622095,-0.04387 0.811047,-0.02194 1.581542,-0.04387 1.784305,-0.06581 3.66999,-0.109678 0,0.175485 0.02028,0.372903 0.02028,0.175485 0.02028,0.416775 0.02028,0.219356 0.02028,0.460646 0,0.109678 -0.04055,0.438709 -0.02028,0.307098 -0.101381,0.701936 -0.06083,0.39484 -0.162209,0.789679 -0.08111,0.394838 -0.202762,0.658064 -1.885685,0 -3.629437,-0.02194 -0.750219,0 -1.54099,0 -0.790772,0 -1.540991,0 -0.729942,-0.02194 -1.399056,-0.02194 -0.669114,0 -1.176019,0 l 0,9.827103 q 1.784304,0 3.751094,-0.06581 1.987066,-0.06581 3.690266,-0.131613 1.987066,-0.08774 3.913304,-0.197418 0,0.197418 0.02028,0.416773 0.02028,0.175485 0.02028,0.438711 0.02028,0.24129 0.02028,0.482581 0,0.460645 -0.06083,1.206452 -0.06083,0.745807 -0.263591,1.601292 l -15.693767,0 0,-29.788408 z" />
</g>
     <path id="heart-bottom" d="m32.7 80.4c0 1.07 0.796 2.03 1.96 2.03 0.835 0 1.58-0.395 1.96-1 0.378 0.609 1.12 1 1.96 1 1.16 0 1.96-0.958 1.96-2.03 0-1.15-0.679-2.06-1.5-2.93-0.77-0.823-1.67-1.6-2.18-2.55-0.0783 0.0226-0.157 0.0338-0.235 0.0338-0.0783 0-0.157-0.0113-0.235-0.0338-0.509 0.947-1.41 1.73-2.18 2.55-0.822 0.868-1.5 1.78-1.5 2.93z" fill="#fff" style="fill-opacity:0.7"/>
     
    </g>
  </g>
</svg>
