<?xml version="1.0" encoding="UTF-8" standalone="no"?>
<svg
   xmlns:dc="http://purl.org/dc/elements/1.1/"
   xmlns:cc="http://creativecommons.org/ns#"
   xmlns:rdf="http://www.w3.org/1999/02/22-rdf-syntax-ns#"
   xmlns:svg="http://www.w3.org/2000/svg"
   xmlns="http://www.w3.org/2000/svg"
   version="1.1"
   id="svg6613"
   viewBox="0 0 62 92"
   height="297mm"
   width="210mm">
  <defs
     id="defs6615" />
  <metadata
     id="metadata6618">
    <rdf:RDF>
      <cc:Work
         rdf:about="">
        <dc:format>image/svg+xml</dc:format>
        <dc:type
           rdf:resource="http://purl.org/dc/dcmitype/StillImage" />
        <dc:title></dc:title>
      </cc:Work>
    </rdf:RDF>
  </metadata>
  <g
     id="layer1">

    <g
       id="purple-zero">
<!--       transform="matrix(4,0,0,4,2.8571413,-1321.3722)"> -->
      <rect
         style="fill:#ffffff;fill-opacity:1;fill-rule:evenodd;stroke:#000000;stroke-width:0.5;stroke-miterlimit:4;stroke-dasharray:none"
         id="card-border"
         y="0"
         x="0"
         ry="10"
         rx="10"
         height="90"
         width="60" />

      <rect
         card-fill="rect3757-5-07-1-97"
         style="fill:#55aa55;fill-opacity:1;fill-rule:evenodd;stroke:none"
         id="card-purple-fill"
         y="5"
         x="5"
         ry="5"
         rx="5"
         height="80"
         width="50" />
      
      <path
         style="fill:#ffffff;fill-opacity:1;fill-rule:evenodd;stroke:none"
         id="card-whitecenter"
         d="m 45,20 c -22.09139,0 -40,17.90861 -40,40 0,5.52285 4.47715,10 10,10 22.09139,0 40,-17.90861 40,-40 0,-5.52285 -4.47715,-10 -10,-10 z" />

      <path
         style="fill:#55aa55;fill-opacity:1;fill-rule:evenodd;stroke:none"
         id="card-center-zero"
         d="m29.08 60.463q-4.8512 0-6.8443-4.6877-1.9555-4.6877-1.9555-11.539 0-3.6861 0.90254-7.0917 0.90255-3.4056 2.8957-5.6092 2.0307-2.2437 5.1144-2.2437 2.3692 0 4.1367 1.5626 1.8051 1.5626 2.7452 4.0867 0.97776 2.4841 0.97776 5.2086l-5.3401 0.28046q0-1.803-0.56409-4.0867-0.56409-2.3238-2.2564-2.3238-1.7675 0-2.4444 3.0049-0.67691 3.005-0.67691 7.2119 0 5.2086 0.75212 8.3738 0.75212 3.1251 2.8957 3.1251 1.5042 0 2.1435-1.8831 0.6393-1.9232 0.82733-4.6476l4.7008 0.48079q0 2.8847-0.90254 5.3688-0.90255 2.444-2.7076 3.9264-1.8051 1.4824-4.3999 1.4824z" />

<g id="mat" transform="matrix(0.5,0,0,0.5,-2.2830149,-7.5007809)">

      <path
         style="fill:#ffffff;fill-opacity:1;fill-rule:evenodd;stroke:none"
         id="card-topleft-zero"
         d="m29.08 60.463q-4.8512 0-6.8443-4.6877-1.9555-4.6877-1.9555-11.539 0-3.6861 0.90254-7.0917 0.90255-3.4056 2.8957-5.6092 2.0307-2.2437 5.1144-2.2437 2.3692 0 4.1367 1.5626 1.8051 1.5626 2.7452 4.0867 0.97776 2.4841 0.97776 5.2086l-5.3401 0.28046q0-1.803-0.56409-4.0867-0.56409-2.3238-2.2564-2.3238-1.7675 0-2.4444 3.0049-0.67691 3.005-0.67691 7.2119 0 5.2086 0.75212 8.3738 0.75212 3.1251 2.8957 3.1251 1.5042 0 2.1435-1.8831 0.6393-1.9232 0.82733-4.6476l4.7008 0.48079q0 2.8847-0.90254 5.3688-0.90255 2.444-2.7076 3.9264-1.8051 1.4824-4.3999 1.4824z" />
         </g>
<g id="mat2" transform="matrix(-0.5,0,0,-0.5,61.685933,98.257762)">

      <path
         style="fill:#ffffff;fill-opacity:1;fill-rule:evenodd;stroke:none"
         id="card-topleft-zero"
         d="m29.08 60.463q-4.8512 0-6.8443-4.6877-1.9555-4.6877-1.9555-11.539 0-3.6861 0.90254-7.0917 0.90255-3.4056 2.8957-5.6092 2.0307-2.2437 5.1144-2.2437 2.3692 0 4.1367 1.5626 1.8051 1.5626 2.7452 4.0867 0.97776 2.4841 0.97776 5.2086l-5.3401 0.28046q0-1.803-0.56409-4.0867-0.56409-2.3238-2.2564-2.3238-1.7675 0-2.4444 3.0049-0.67691 3.005-0.67691 7.2119 0 5.2086 0.75212 8.3738 0.75212 3.1251 2.8957 3.1251 1.5042 0 2.1435-1.8831 0.6393-1.9232 0.82733-4.6476l4.7008 0.48079q0 2.8847-0.90254 5.3688-0.90255 2.444-2.7076 3.9264-1.8051 1.4824-4.3999 1.4824z" />
         </g>
    </g>
  </g>
</svg>
