<?xml version="1.0" encoding="UTF-8" standalone="no"?>
<svg
   xmlns:dc="http://purl.org/dc/elements/1.1/"
   xmlns:cc="http://creativecommons.org/ns#"
   xmlns:rdf="http://www.w3.org/1999/02/22-rdf-syntax-ns#"
   xmlns:svg="http://www.w3.org/2000/svg"
   xmlns="http://www.w3.org/2000/svg"
   version="1.1"
   id="svg6613"
   viewBox="0 0 62 92"
   height="297mm"
   width="210mm">
  <defs
     id="defs6615" />
  <metadata
     id="metadata6618">
    <rdf:RDF>
      <cc:Work
         rdf:about="">
        <dc:format>image/svg+xml</dc:format>
        <dc:type
           rdf:resource="http://purl.org/dc/dcmitype/StillImage" />
        <dc:title></dc:title>
      </cc:Work>
    </rdf:RDF>
  </metadata>
  <g
     id="layer1">

    <g
       id="purple-zero">
      <rect
         style="fill:#ffffff;fill-opacity:1;fill-rule:evenodd;stroke:#000000;stroke-width:0.5;stroke-miterlimit:4;stroke-dasharray:none"
         id="card-border"
         y="0"
         x="0"
         ry="10"
         rx="10"
         height="90"
         width="60" />

      <rect
         card-fill="rect3757-5-07-1-97"
         style="fill:#ff5555;fill-opacity:1;fill-rule:evenodd;stroke:none"
         id="card-purple-fill"
         y="5"
         x="5"
         ry="5"
         rx="5"
         height="80"
         width="50" />
      
      <path
         style="fill:#ffffff;fill-opacity:1;fill-rule:evenodd;stroke:none"
         id="card-whitecenter"
         d="m 45,20 c -22.09139,0 -40,17.90861 -40,40 0,5.52285 4.47715,10 10,10 22.09139,0 40,-17.90861 40,-40 0,-5.52285 -4.47715,-10 -10,-10 z" />

      <path
         style="fill:#ff5555;fill-opacity:1;fill-rule:evenodd;stroke:none"
         id="card-center-zero"
         d="m 26.373334,29.928035 -8.035469,30.062368 5.165659,0 1.147923,-4.589675 8.406858,0 1.046636,4.589675 5.503284,0 -7.731607,-30.062368 -5.503284,0 z m 2.667235,7.802446 2.836049,13.157068 -6.111008,0 3.274959,-13.157068 z" />

<g id="mat" transform="matrix(0.5,0,0,0.5,-2.5,-7.5)">

      <path
         style="fill:#ffffff;fill-opacity:1;fill-rule:evenodd;stroke:none"
         id="card-topleft-zero"
         d="m 26.373334,29.928035 -8.035469,30.062368 5.165659,0 1.147923,-4.589675 8.406858,0 1.046636,4.589675 5.503284,0 -7.731607,-30.062368 -5.503284,0 z m 2.667235,7.802446 2.836049,13.157068 -6.111008,0 3.274959,-13.157068 z" />
         </g>
<g id="mat2" transform="matrix(-0.5,0,0,-0.5,62.5,96.8)">

      <path
         style="fill:#ffffff;fill-opacity:1;fill-rule:evenodd;stroke:none"
         id="card-bottomright-zero"
         d="m 26.373334,29.928035 -8.035469,30.062368 5.165659,0 1.147923,-4.589675 8.406858,0 1.046636,4.589675 5.503284,0 -7.731607,-30.062368 -5.503284,0 z m 2.667235,7.802446 2.836049,13.157068 -6.111008,0 3.274959,-13.157068 z" />
</g>
    </g>
  </g>
</svg>
