<?xml version="1.0" encoding="UTF-8" standalone="no"?>
<svg
   xmlns:dc="http://purl.org/dc/elements/1.1/"
   xmlns:cc="http://creativecommons.org/ns#"
   xmlns:rdf="http://www.w3.org/1999/02/22-rdf-syntax-ns#"
   xmlns:svg="http://www.w3.org/2000/svg"
   xmlns="http://www.w3.org/2000/svg"
   version="1.1"
   id="svg6613"
   viewBox="0 0 62 92"
   height="297mm"
   width="210mm">
  <defs
     id="defs6615" />
  <metadata
     id="metadata6618">
    <rdf:RDF>
      <cc:Work
         rdf:about="">
        <dc:format>image/svg+xml</dc:format>
        <dc:type
           rdf:resource="http://purl.org/dc/dcmitype/StillImage" />
        <dc:title></dc:title>
      </cc:Work>
    </rdf:RDF>
  </metadata>
  <g
     id="layer1">

    <g
       id="purple-zero">
      <rect
         style="fill:#ffffff;fill-opacity:1;fill-rule:evenodd;stroke:#000000;stroke-width:0.5;stroke-miterlimit:4;stroke-dasharray:none"
         id="card-border"
         y="0"
         x="0"
         ry="10"
         rx="10"
         height="90"
         width="60" />

      <rect
         card-fill="rect3757-5-07-1-97"
         style="fill:#55aa55;fill-opacity:1;fill-rule:evenodd;stroke:none"
         id="card-purple-fill"
         y="5"
         x="5"
         ry="5"
         rx="5"
         height="80"
         width="50" />
      
      <path
         style="fill:#ffffff;fill-opacity:1;fill-rule:evenodd;stroke:none"
         id="card-whitecenter"
         d="m 45,20 c -22.09139,0 -40,17.90861 -40,40 0,5.52285 4.47715,10 10,10 22.09139,0 40,-17.90861 40,-40 0,-5.52285 -4.47715,-10 -10,-10 z" />

      <path
         style="fill:#55aa55;fill-opacity:1;fill-rule:evenodd;stroke:none"
         id="card-center-zero"
         d="m 21,30 0,10 0,5 10,0 c 2.77,0 5,2.23 5,5 0,2.77 -2.23,5 -5,5 -2.77,0 -5,-2.23 -5,-5 l -5,0 c 0,5.54 4.46,10 10,10 5.54,0 10,-4.46 10,-10 0,-5.54 -4.46,-10 -10,-10 l -5,0 0,-5 5,0 9,0 0,-5 -9,0 -5,0 z" />

      <path
         style="fill:#ffffff;fill-opacity:1;fill-rule:evenodd;stroke:none"
         id="card-topleft-zero"
         d="m 7.5,7.5 0,5 0,2.5 5,0 c 1.385,0 2.5,1.115 2.5,2.5 0,1.385 -1.115,2.5 -2.5,2.5 -1.385,0 -2.5,-1.115 -2.5,-2.5 l -2.5,0 c 0,2.77 2.23,5 5,5 2.77,0 5,-2.23 5,-5 0,-2.77 -2.23,-5 -5,-5 l -2.5,0 0,-2.5 2.5,0 4.5,0 0,-2.5 -4.5,0 -2.5,0 z" />
         
 <path id="questions-top" d="m24.5 13.3c0-0.138-0.139-0.252-0.308-0.252h-1.85c-0.169 0-0.308 0.113-0.308 0.252v1.51c0 0.138 0.139 0.252 0.308 0.252h1.85c0.169 0 0.308-0.113 0.308-0.252v-1.51zm2.43-3.78c0-1.44-1.85-2.52-3.5-2.52-1.57 0-2.74 0.547-3.57 1.67-0.0847 0.113-0.0539 0.252 0.077 0.333l1.26 0.786c0.0616 0.0315 0.123 0.0503 0.193 0.0503 0.0847 0 0.177-0.0377 0.239-0.101 0.455-0.466 0.639-0.617 0.824-0.724 0.169-0.0944 0.485-0.182 0.832-0.182 0.624 0 1.19 0.315 1.19 0.667 0 0.403-0.247 0.61-0.84 0.831-0.678 0.252-1.6 0.906-1.6 1.67v0.283c0 0.138 0.108 0.352 0.277 0.352h1.85c0.177 0 0.308-0.164 0.308-0.302 0-0.182 0.285-0.617 0.74-0.831 0.732-0.333 1.73-0.793 1.73-1.99z" fill="#fff"/>
 
      <path
         style="fill:#ffffff;fill-opacity:1;fill-rule:evenodd;stroke:none"
         id="card-bottomright-zero"
         d="m 52.5,82.5 0,-5 0,-2.5 -5,0 c -1.385,0 -2.5,-1.115 -2.5,-2.5 0,-1.385 1.115,-2.5 2.5,-2.5 1.385,0 2.5,1.115 2.5,2.5 l 2.5,0 c 0,-2.77 -2.23,-5 -5,-5 -2.77,0 -5,2.23 -5,5 0,2.77 2.23,5 5,5 l 2.5,0 0,2.5 -2.5,0 -4.5,0 0,2.5 4.5,0 2.5,0 z" />

     <path id="questions-bottom" d="m34.9 76.7c0 0.138 0.131 0.252 0.291 0.252h1.75c0.16 0 0.291-0.113 0.291-0.252v-1.51c0-0.138-0.131-0.252-0.291-0.252h-1.75c-0.16 0-0.291 0.113-0.291 0.252v1.51zm-2.3 3.78c0 1.44 1.75 2.52 3.31 2.52 1.49 0 2.59-0.547 3.38-1.67 0.0801-0.113 0.051-0.252-0.0728-0.333l-1.2-0.8c-0.0583-0.0314-0.117-0.0503-0.182-0.0503-0.0801 0-0.167 0.0378-0.226 0.101-0.43 0.466-0.604 0.617-0.779 0.724-0.16 0.0944-0.459 0.182-0.786 0.182-0.59 0-1.12-0.315-1.12-0.667 0-0.403 0.233-0.61 0.794-0.831 0.641-0.252 1.51-0.906 1.51-1.67v-0.283c0-0.138-0.102-0.352-0.262-0.352h-1.75c-0.167 0-0.291 0.164-0.291 0.302 0 0.182-0.269 0.617-0.699 0.831-0.692 0.333-1.63 0.793-1.63 1.99z" fill="#fff"/>
     
    </g>
  </g>
</svg>
