<?xml version="1.0" encoding="UTF-8" standalone="no"?>
<svg
   xmlns:dc="http://purl.org/dc/elements/1.1/"
   xmlns:cc="http://creativecommons.org/ns#"
   xmlns:rdf="http://www.w3.org/1999/02/22-rdf-syntax-ns#"
   xmlns:svg="http://www.w3.org/2000/svg"
   xmlns="http://www.w3.org/2000/svg"
   version="1.1"
   id="svg6613"
   viewBox="0 0 62 92"
   height="297mm"
   width="210mm">
  <defs
     id="defs6615" />
  <metadata
     id="metadata6618">
    <rdf:RDF>
      <cc:Work
         rdf:about="">
        <dc:format>image/svg+xml</dc:format>
        <dc:type
           rdf:resource="http://purl.org/dc/dcmitype/StillImage" />
        <dc:title></dc:title>
      </cc:Work>
    </rdf:RDF>
  </metadata>
  <g
     id="layer1">

    <g
       id="purple-zero">
<!--       transform="matrix(4,0,0,4,2.8571413,-1321.3722)"> -->
      <rect
         style="fill:#ffffff;fill-opacity:1;fill-rule:evenodd;stroke:#000000;stroke-width:0.5;stroke-miterlimit:4;stroke-dasharray:none"
         id="card-border"
         y="0"
         x="0"
         ry="10"
         rx="10"
         height="90"
         width="60" />

      <rect
         card-fill="rect3757-5-07-1-97"
         style="fill:#55aa55;fill-opacity:1;fill-rule:evenodd;stroke:none"
         id="card-purple-fill"
         y="5"
         x="5"
         ry="5"
         rx="5"
         height="80"
         width="50" />
      
      <path
         style="fill:#ffffff;fill-opacity:1;fill-rule:evenodd;stroke:none"
         id="card-whitecenter"
         d="m 45,20 c -22.09139,0 -40,17.90861 -40,40 0,5.52285 4.47715,10 10,10 22.09139,0 40,-17.90861 40,-40 0,-5.52285 -4.47715,-10 -10,-10 z" />

      <path
         style="fill:#55aa55;fill-opacity:1;fill-rule:evenodd;stroke:none"
         id="card-center-zero"
         d="m23.251 29.829h5.7913q5.5657 0 8.3109 3.7662t2.7452 11.379q0 4.0466-1.053 7.4122-1.0154 3.3655-3.2717 5.449-2.2564 2.0434-5.7537 2.0434h-6.7691v-30.049zm6.2802 25.362q2.8581 0 3.9486-2.6043 1.1282-2.6443 1.1282-6.4907v-1.3622q0-2.7646-0.33846-4.888-0.30085-2.1636-1.4666-3.7261-1.1282-1.6026-3.4222-1.6026h-0.6393v20.674h0.78972z" />

<g id="mat" transform="matrix(0.5,0,0,0.5,-2.2830149,-7.5007809)">

      <path
         style="fill:#ffffff;fill-opacity:1;fill-rule:evenodd;stroke:none"
         id="card-topleft-zero"
         d="m23.251 29.829h5.7913q5.5657 0 8.3109 3.7662t2.7452 11.379q0 4.0466-1.053 7.4122-1.0154 3.3655-3.2717 5.449-2.2564 2.0434-5.7537 2.0434h-6.7691v-30.049zm6.2802 25.362q2.8581 0 3.9486-2.6043 1.1282-2.6443 1.1282-6.4907v-1.3622q0-2.7646-0.33846-4.888-0.30085-2.1636-1.4666-3.7261-1.1282-1.6026-3.4222-1.6026h-0.6393v20.674h0.78972z" />
         </g>
<g id="mat2" transform="matrix(-0.5,0,0,-0.5,61.685933,98.257762)">

      <path
         style="fill:#ffffff;fill-opacity:1;fill-rule:evenodd;stroke:none"
         id="card-topleft-zero"
         d="m23.251 29.829h5.7913q5.5657 0 8.3109 3.7662t2.7452 11.379q0 4.0466-1.053 7.4122-1.0154 3.3655-3.2717 5.449-2.2564 2.0434-5.7537 2.0434h-6.7691v-30.049zm6.2802 25.362q2.8581 0 3.9486-2.6043 1.1282-2.6443 1.1282-6.4907v-1.3622q0-2.7646-0.33846-4.888-0.30085-2.1636-1.4666-3.7261-1.1282-1.6026-3.4222-1.6026h-0.6393v20.674h0.78972z" />
         </g>
    </g>
  </g>
</svg>
