<?xml version="1.0" encoding="UTF-8" standalone="no"?>
<svg
   xmlns:dc="http://purl.org/dc/elements/1.1/"
   xmlns:cc="http://creativecommons.org/ns#"
   xmlns:rdf="http://www.w3.org/1999/02/22-rdf-syntax-ns#"
   xmlns:svg="http://www.w3.org/2000/svg"
   xmlns="http://www.w3.org/2000/svg"
   version="1.1"
   id="svg6613"
   viewBox="0 0 62 92"
   height="297mm"
   width="210mm">
  <defs
     id="defs6615" />
  <metadata
     id="metadata6618">
    <rdf:RDF>
      <cc:Work
         rdf:about="">
        <dc:format>image/svg+xml</dc:format>
        <dc:type
           rdf:resource="http://purl.org/dc/dcmitype/StillImage" />
        <dc:title></dc:title>
      </cc:Work>
    </rdf:RDF>
  </metadata>
  <g
     id="layer1">

    <g
       id="purple-zero">
      <rect
         style="fill:#ffffff;fill-opacity:0.7;fill-rule:evenodd;stroke:#000000;stroke-opacity:0.5;stroke-width:0.5;stroke-miterlimit:4;stroke-dasharray:none"
         id="card-border"
         y="0"
         x="0"
         ry="10"
         rx="10"
         height="90"
         width="60" />

      <rect
         card-fill="rect3757-5-07-1-97"
         style="fill:#800080;fill-opacity:1;fill-rule:evenodd;stroke:none"
         id="card-purple-fill"
         y="5"
         x="5"
         ry="5"
         rx="5"
         height="80"
         width="50" />
      
      <path
         style="fill:#ffffff;fill-opacity:0.7;fill-rule:evenodd;stroke:none"
         id="card-whitecenter"
         d="m 45,20 c -22.09139,0 -40,17.90861 -40,40 0,5.52285 4.47715,10 10,10 22.09139,0 40,-17.90861 40,-40 0,-5.52285 -4.47715,-10 -10,-10 z" />

      <path
         style="fill:#800080;fill-opacity:1;fill-rule:evenodd;stroke:none"
         id="card-center-zero"
         d="m 21.826706,30.224075 15.795148,0 q 0,0.15355 0.02028,0.329033 0.02028,0.153548 0.02028,0.350968 0.02028,0.175485 0.02028,0.394839 0,0.372904 -0.141934,1.140646 -0.121657,0.745807 -0.567733,1.732905 -1.682923,-0.06581 -3.487504,-0.131613 -1.54099,-0.04387 -3.406399,-0.08775 -1.865409,-0.06581 -3.649713,-0.06581 l 0,8.993555 q 0.588009,0 1.317952,0 0.750219,-0.02194 1.54099,-0.04387 0.811047,-0.02194 1.622095,-0.04387 0.811047,-0.02194 1.581542,-0.04387 1.784305,-0.06581 3.66999,-0.109678 0,0.175485 0.02028,0.372903 0.02028,0.175485 0.02028,0.416775 0.02028,0.219356 0.02028,0.460646 0,0.109678 -0.04055,0.438709 -0.02028,0.307098 -0.101381,0.701936 -0.06083,0.39484 -0.162209,0.789679 -0.08111,0.394838 -0.202762,0.658064 -1.885685,0 -3.629437,-0.02194 -0.750219,0 -1.54099,0 -0.790772,0 -1.540991,0 -0.729942,-0.02194 -1.399056,-0.02194 -0.669114,0 -1.176019,0 l 0,9.827103 q 1.784304,0 3.751094,-0.06581 1.987066,-0.06581 3.690266,-0.131613 1.987066,-0.08774 3.913304,-0.197418 0,0.197418 0.02028,0.416773 0.02028,0.175485 0.02028,0.438711 0.02028,0.24129 0.02028,0.482581 0,0.460645 -0.06083,1.206452 -0.06083,0.745807 -0.263591,1.601292 l -15.693767,0 0,-29.788408 z" />

<g id="mat" transform="matrix(0.5,0,0,0.5,-2.5,-7.5)">

      <path
         style="fill:#ffffff;fill-opacity:0.7;fill-rule:evenodd;stroke:none"
         id="card-topleft-zero"
         d="m 21.826706,30.224075 15.795148,0 q 0,0.15355 0.02028,0.329033 0.02028,0.153548 0.02028,0.350968 0.02028,0.175485 0.02028,0.394839 0,0.372904 -0.141934,1.140646 -0.121657,0.745807 -0.567733,1.732905 -1.682923,-0.06581 -3.487504,-0.131613 -1.54099,-0.04387 -3.406399,-0.08775 -1.865409,-0.06581 -3.649713,-0.06581 l 0,8.993555 q 0.588009,0 1.317952,0 0.750219,-0.02194 1.54099,-0.04387 0.811047,-0.02194 1.622095,-0.04387 0.811047,-0.02194 1.581542,-0.04387 1.784305,-0.06581 3.66999,-0.109678 0,0.175485 0.02028,0.372903 0.02028,0.175485 0.02028,0.416775 0.02028,0.219356 0.02028,0.460646 0,0.109678 -0.04055,0.438709 -0.02028,0.307098 -0.101381,0.701936 -0.06083,0.39484 -0.162209,0.789679 -0.08111,0.394838 -0.202762,0.658064 -1.885685,0 -3.629437,-0.02194 -0.750219,0 -1.54099,0 -0.790772,0 -1.540991,0 -0.729942,-0.02194 -1.399056,-0.02194 -0.669114,0 -1.176019,0 l 0,9.827103 q 1.784304,0 3.751094,-0.06581 1.987066,-0.06581 3.690266,-0.131613 1.987066,-0.08774 3.913304,-0.197418 0,0.197418 0.02028,0.416773 0.02028,0.175485 0.02028,0.438711 0.02028,0.24129 0.02028,0.482581 0,0.460645 -0.06083,1.206452 -0.06083,0.745807 -0.263591,1.601292 l -15.693767,0 0,-29.788408 z" />
         </g>
 <path id="diamond-top" d="m26.5 11.2c-0.7-0.6-1.4-1.1-2-1.76-0.6-0.62-1.1-1.28-1.6-1.98-0.0783 0.0226-0.144 0.0338-0.222 0.0338-0.0783 0-0.157-0.0113-0.222-0.0338-0.47 0.699-1.02 1.36-1.62 1.98-0.6 0.631-1.27 1.21-1.98 1.74 0.0261 0.0451 0.0392 0.113 0.0392 0.169 0 0.0564-0.013 0.113-0.0392 0.169 0.718 0.485 1.38 1.03 1.98 1.61 0.6 0.586 1.14 1.22 1.62 1.88 0.0652-0.0226 0.144-0.0338 0.222-0.0338 0.0783 0 0.144 0.0113 0.222 0.0338 0.47-0.665 1.02-1.3 1.62-1.88 0.6-0.586 1.27-1.13 1.97-1.61-0.0261-0.0564-0.0392-0.113-0.0261-0.169 0-0.0564 0.013-0.124 0.0392-0.18z" fill="#fff" style="fill-opacity:0.7"/>
 
<g id="mat2" transform="matrix(-0.5,0,0,-0.5,62.5,96.8)">

      <path
         style="fill:#ffffff;fill-opacity:0.7;fill-rule:evenodd;stroke:none"
         id="card-bottomright-zero"
         d="m 21.826706,30.224075 15.795148,0 q 0,0.15355 0.02028,0.329033 0.02028,0.153548 0.02028,0.350968 0.02028,0.175485 0.02028,0.394839 0,0.372904 -0.141934,1.140646 -0.121657,0.745807 -0.567733,1.732905 -1.682923,-0.06581 -3.487504,-0.131613 -1.54099,-0.04387 -3.406399,-0.08775 -1.865409,-0.06581 -3.649713,-0.06581 l 0,8.993555 q 0.588009,0 1.317952,0 0.750219,-0.02194 1.54099,-0.04387 0.811047,-0.02194 1.622095,-0.04387 0.811047,-0.02194 1.581542,-0.04387 1.784305,-0.06581 3.66999,-0.109678 0,0.175485 0.02028,0.372903 0.02028,0.175485 0.02028,0.416775 0.02028,0.219356 0.02028,0.460646 0,0.109678 -0.04055,0.438709 -0.02028,0.307098 -0.101381,0.701936 -0.06083,0.39484 -0.162209,0.789679 -0.08111,0.394838 -0.202762,0.658064 -1.885685,0 -3.629437,-0.02194 -0.750219,0 -1.54099,0 -0.790772,0 -1.540991,0 -0.729942,-0.02194 -1.399056,-0.02194 -0.669114,0 -1.176019,0 l 0,9.827103 q 1.784304,0 3.751094,-0.06581 1.987066,-0.06581 3.690266,-0.131613 1.987066,-0.08774 3.913304,-0.197418 0,0.197418 0.02028,0.416773 0.02028,0.175485 0.02028,0.438711 0.02028,0.24129 0.02028,0.482581 0,0.460645 -0.06083,1.206452 -0.06083,0.745807 -0.263591,1.601292 l -15.693767,0 0,-29.788408 z" />
</g>
     <path id="diamond-bottom" d="m32.8 78.8c0.718 0.519 1.38 1.09 1.98 1.73 0.613 0.62 1.15 1.29 1.62 1.98 0.0783-0.0226 0.144-0.0338 0.222-0.0338 0.0783 0 0.157 0.0113 0.222 0.0338 0.47-0.699 1.02-1.36 1.62-1.98 0.6-0.631 1.27-1.21 1.98-1.74-0.0261-0.0451-0.0392-0.113-0.0392-0.169 0-0.0564 0.013-0.113 0.0392-0.169-0.718-0.485-1.38-1.03-1.98-1.61-0.6-0.586-1.14-1.22-1.62-1.88-0.0652 0.0226-0.144 0.0338-0.222 0.0338-0.0783 0-0.144-0.0113-0.222-0.0338-0.47 0.665-1.02 1.3-1.62 1.88-0.6 0.586-1.27 1.13-1.97 1.61 0.0261 0.0564 0.0392 0.113 0.0261 0.169 0 0.0564-0.013 0.124-0.0392 0.18z" fill="#fff" style="fill-opacity:0.7"/>
     
    </g>
  </g>
</svg>
