<?xml version="1.0" encoding="UTF-8" standalone="no"?>
<svg
   xmlns:dc="http://purl.org/dc/elements/1.1/"
   xmlns:cc="http://creativecommons.org/ns#"
   xmlns:rdf="http://www.w3.org/1999/02/22-rdf-syntax-ns#"
   xmlns:svg="http://www.w3.org/2000/svg"
   xmlns="http://www.w3.org/2000/svg"
   version="1.1"
   id="svg6613"
   viewBox="0 0 62 92"
   height="297mm"
   width="210mm">
  <defs
     id="defs6615" />
  <metadata
     id="metadata6618">
    <rdf:RDF>
      <cc:Work
         rdf:about="">
        <dc:format>image/svg+xml</dc:format>
        <dc:type
           rdf:resource="http://purl.org/dc/dcmitype/StillImage" />
        <dc:title></dc:title>
      </cc:Work>
    </rdf:RDF>
  </metadata>
  <g
     id="layer1">

    <g
       id="purple-zero">
      <rect
         style="fill:#ffffff;fill-opacity:1;fill-rule:evenodd;stroke:#000000;stroke-width:0.5;stroke-miterlimit:4;stroke-dasharray:none"
         id="card-border"
         y="0"
         x="0"
         ry="10"
         rx="10"
         height="90"
         width="60" />

      <rect
         card-fill="rect3757-5-07-1-97"
         style="fill:#ffaa00;fill-opacity:1;fill-rule:evenodd;stroke:none"
         id="card-purple-fill"
         y="5"
         x="5"
         ry="5"
         rx="5"
         height="80"
         width="50" />
      
      <path
         style="fill:#ffffff;fill-opacity:1;fill-rule:evenodd;stroke:none"
         id="card-whitecenter"
         d="m 45,20 c -22.09139,0 -40,17.90861 -40,40 0,5.52285 4.47715,10 10,10 22.09139,0 40,-17.90861 40,-40 0,-5.52285 -4.47715,-10 -10,-10 z" />

      <path
         style="fill:#ffaa00;fill-opacity:1;fill-rule:evenodd;stroke:none"
         id="card-center-zero"
         d="m 19.170526,45.381505 q 0,-3.750969 0.811047,-6.668391 0.811048,-2.939357 2.39259,-4.935488 1.581542,-2.018066 3.893028,-3.07097 2.311485,-1.052904 5.31236,-1.052904 1.196295,0 2.352037,0.19742 1.155743,0.175485 2.108724,0.416775 1.094914,0.263226 2.108723,0.592259 -0.06083,0.570322 -0.182486,1.206452 -0.101381,0.570323 -0.324419,1.294194 -0.202761,0.701936 -0.547457,1.469678 -0.750218,-0.329032 -1.642371,-0.570323 -0.770495,-0.219354 -1.764028,-0.394839 -0.993533,-0.175483 -2.108723,-0.175483 -1.80458,0 -3.264466,0.789677 -1.439609,0.789679 -2.473694,2.303228 -1.01381,1.491614 -1.561267,3.663229 -0.547457,2.171614 -0.547457,4.935486 0,2.741937 0.547457,4.82581 0.547457,2.083873 1.561267,3.487744 1.034085,1.403872 2.473694,2.127744 1.459886,0.701936 3.264466,0.701936 1.135466,0 2.169552,-0.175484 1.034085,-0.175484 1.824856,-0.39484 0.932705,-0.24129 1.723476,-0.592258 0.223038,0.504517 0.385248,1.118711 0.141933,0.526451 0.243314,1.272259 0.121657,0.723872 0.08111,1.645163 -0.952981,0.350967 -2.027619,0.592258 -0.912428,0.241291 -2.068171,0.416774 -1.135466,0.175485 -2.331761,0.175485 -6.16396,0 -9.286493,-3.816778 -3.122532,-3.838712 -3.122532,-11.384524 z" />

<g id="mat" transform="matrix(0.5,0,0,0.5,-2.5,-7.5)">

      <path
         style="fill:#ffffff;fill-opacity:1;fill-rule:evenodd;stroke:none"
         id="card-topleft-zero"
         d="m 19.170526,45.381505 q 0,-3.750969 0.811047,-6.668391 0.811048,-2.939357 2.39259,-4.935488 1.581542,-2.018066 3.893028,-3.07097 2.311485,-1.052904 5.31236,-1.052904 1.196295,0 2.352037,0.19742 1.155743,0.175485 2.108724,0.416775 1.094914,0.263226 2.108723,0.592259 -0.06083,0.570322 -0.182486,1.206452 -0.101381,0.570323 -0.324419,1.294194 -0.202761,0.701936 -0.547457,1.469678 -0.750218,-0.329032 -1.642371,-0.570323 -0.770495,-0.219354 -1.764028,-0.394839 -0.993533,-0.175483 -2.108723,-0.175483 -1.80458,0 -3.264466,0.789677 -1.439609,0.789679 -2.473694,2.303228 -1.01381,1.491614 -1.561267,3.663229 -0.547457,2.171614 -0.547457,4.935486 0,2.741937 0.547457,4.82581 0.547457,2.083873 1.561267,3.487744 1.034085,1.403872 2.473694,2.127744 1.459886,0.701936 3.264466,0.701936 1.135466,0 2.169552,-0.175484 1.034085,-0.175484 1.824856,-0.39484 0.932705,-0.24129 1.723476,-0.592258 0.223038,0.504517 0.385248,1.118711 0.141933,0.526451 0.243314,1.272259 0.121657,0.723872 0.08111,1.645163 -0.952981,0.350967 -2.027619,0.592258 -0.912428,0.241291 -2.068171,0.416774 -1.135466,0.175485 -2.331761,0.175485 -6.16396,0 -9.286493,-3.816778 -3.122532,-3.838712 -3.122532,-11.384524 z" />
         </g>
 <path id="spades-top" d="m27.2 12.2c0-1.1-0.77-1.87-1.68-2.59-0.835-0.654-1.79-1.26-2.26-2.12-0.0783 0.0226-0.157 0.0338-0.235 0.0338-0.0783 0-0.157-0.0113-0.235-0.0338-0.47 0.857-1.42 1.47-2.26 2.12-0.913 0.722-1.68 1.49-1.68 2.59 0 0.891 0.666 1.69 1.63 1.69 0.6 0 1.16-0.259 1.51-0.677h0.365c-0.0522 0.53-0.3 1.03-0.705 1.43 0.0522 0.0564 0.104 0.113 0.144 0.169 0.0392 0.0676 0.0522 0.135 0.0652 0.203 0.391-0.0226 0.77-0.0338 1.16-0.0338l1.16 0.0338c0.013-0.0676 0.0261-0.135 0.0652-0.203 0.0392-0.0564 0.0914-0.113 0.144-0.169-0.405-0.406-0.652-0.902-0.705-1.43h0.365c0.352 0.417 0.913 0.677 1.51 0.677 0.966 0 1.63-0.801 1.63-1.69z" fill="#fff"/>
 
<g id="mat2" transform="matrix(-0.5,0,0,-0.5,62.5,96.8)">

      <path
         style="fill:#ffffff;fill-opacity:1;fill-rule:evenodd;stroke:none"
         id="card-bottomright-zero"
         d="m 19.170526,45.381505 q 0,-3.750969 0.811047,-6.668391 0.811048,-2.939357 2.39259,-4.935488 1.581542,-2.018066 3.893028,-3.07097 2.311485,-1.052904 5.31236,-1.052904 1.196295,0 2.352037,0.19742 1.155743,0.175485 2.108724,0.416775 1.094914,0.263226 2.108723,0.592259 -0.06083,0.570322 -0.182486,1.206452 -0.101381,0.570323 -0.324419,1.294194 -0.202761,0.701936 -0.547457,1.469678 -0.750218,-0.329032 -1.642371,-0.570323 -0.770495,-0.219354 -1.764028,-0.394839 -0.993533,-0.175483 -2.108723,-0.175483 -1.80458,0 -3.264466,0.789677 -1.439609,0.789679 -2.473694,2.303228 -1.01381,1.491614 -1.561267,3.663229 -0.547457,2.171614 -0.547457,4.935486 0,2.741937 0.547457,4.82581 0.547457,2.083873 1.561267,3.487744 1.034085,1.403872 2.473694,2.127744 1.459886,0.701936 3.264466,0.701936 1.135466,0 2.169552,-0.175484 1.034085,-0.175484 1.824856,-0.39484 0.932705,-0.24129 1.723476,-0.592258 0.223038,0.504517 0.385248,1.118711 0.141933,0.526451 0.243314,1.272259 0.121657,0.723872 0.08111,1.645163 -0.952981,0.350967 -2.027619,0.592258 -0.912428,0.241291 -2.068171,0.416774 -1.135466,0.175485 -2.331761,0.175485 -6.16396,0 -9.286493,-3.816778 -3.122532,-3.838712 -3.122532,-11.384524 z" />
</g>
 <path id="spades-bottom" d="m32.1 77.8c0 1.1 0.77 1.87 1.68 2.59 0.835 0.654 1.79 1.26 2.26 2.12 0.0783-0.0226 0.157-0.0338 0.235-0.0338 0.0783 0 0.157 0.0113 0.235 0.0338 0.47-0.857 1.42-1.47 2.26-2.12 0.913-0.722 1.68-1.49 1.68-2.59 0-0.891-0.666-1.69-1.63-1.69-0.6 0-1.16 0.259-1.51 0.677h-0.365c0.0522-0.53 0.3-1.03 0.705-1.43-0.0522-0.0564-0.104-0.113-0.144-0.169-0.0392-0.0676-0.0522-0.135-0.0652-0.203-0.391 0.0226-0.77 0.0338-1.16 0.0338l-1.16-0.0338c-0.013 0.0676-0.0261 0.135-0.0652 0.203-0.0392 0.0564-0.0914 0.113-0.144 0.169 0.405 0.406 0.652 0.902 0.705 1.43h-0.365c-0.352-0.417-0.913-0.677-1.51-0.677-0.966 0-1.63 0.801-1.63 1.69z" fill="#fff"/>
 
    </g>
  </g>
</svg>
