<?xml version="1.0" encoding="UTF-8" standalone="no"?>
<svg
   xmlns:dc="http://purl.org/dc/elements/1.1/"
   xmlns:cc="http://creativecommons.org/ns#"
   xmlns:rdf="http://www.w3.org/1999/02/22-rdf-syntax-ns#"
   xmlns:svg="http://www.w3.org/2000/svg"
   xmlns="http://www.w3.org/2000/svg"
   version="1.1"
   id="svg6613"
   viewBox="0 0 62 92"
   height="297mm"
   width="210mm">
  <defs
     id="defs6615" />
  <metadata
     id="metadata6618">
    <rdf:RDF>
      <cc:Work
         rdf:about="">
        <dc:format>image/svg+xml</dc:format>
        <dc:type
           rdf:resource="http://purl.org/dc/dcmitype/StillImage" />
        <dc:title></dc:title>
      </cc:Work>
    </rdf:RDF>
  </metadata>
  <g
     id="layer1">

    <g
       id="purple-zero">
      <rect
         style="fill:#ffffff;fill-opacity:1;fill-rule:evenodd;stroke:#000000;stroke-width:0.5;stroke-miterlimit:4;stroke-dasharray:none"
         id="card-border"
         y="0"
         x="0"
         ry="10"
         rx="10"
         height="90"
         width="60" />

      <rect
         card-fill="rect3757-5-07-1-97"
         style="fill:#ffaa00;fill-opacity:1;fill-rule:evenodd;stroke:none"
         id="card-purple-fill"
         y="5"
         x="5"
         ry="5"
         rx="5"
         height="80"
         width="50" />
      
      <path
         style="fill:#ffffff;fill-opacity:1;fill-rule:evenodd;stroke:none"
         id="card-whitecenter"
         d="m 45,20 c -22.09139,0 -40,17.90861 -40,40 0,5.52285 4.47715,10 10,10 22.09139,0 40,-17.90861 40,-40 0,-5.52285 -4.47715,-10 -10,-10 z" />

      <path
         style="fill:#ffaa00;fill-opacity:1;fill-rule:evenodd;stroke:none"
         id="card-center-zero"
         d="m 22.110573,30.224075 15.795148,0 q 0,0.15355 0.02028,0.329033 0.02028,0.153548 0.02028,0.350968 0.02028,0.175485 0.02028,0.394839 0,0.372904 -0.141933,1.140646 -0.121657,0.745807 -0.567733,1.732905 -1.662647,-0.06581 -3.446952,-0.131613 -1.520714,-0.04387 -3.406399,-0.08775 -1.865409,-0.06581 -3.690265,-0.06581 l 0,9.717426 q 0.547457,0 1.277399,0 0.729943,-0.02194 1.54099,-0.04387 0.811048,-0.02194 1.662647,-0.04387 0.871876,-0.04387 1.682924,-0.06581 1.905961,-0.06581 3.974132,-0.131613 0,0.175484 0.02028,0.372904 0.02028,0.175483 0.02028,0.416774 0.02028,0.219355 0.02028,0.460645 0,0.19742 -0.101381,0.833549 -0.08111,0.63613 -0.405524,1.820647 -2.149276,0 -4.055237,-0.02194 -0.811047,0 -1.662647,0 -0.831324,0 -1.581543,0 -0.750218,-0.02194 -1.37878,-0.02194 -0.628562,0 -1.013809,0 l 0,12.832268 -4.602694,0 0,-29.788408 z" />

<g id="mat" transform="matrix(0.5,0,0,0.5,-2.5,-7.5)">

      <path
         style="fill:#ffffff;fill-opacity:1;fill-rule:evenodd;stroke:none"
         id="card-topleft-zero"
         d="m 22.110573,30.224075 15.795148,0 q 0,0.15355 0.02028,0.329033 0.02028,0.153548 0.02028,0.350968 0.02028,0.175485 0.02028,0.394839 0,0.372904 -0.141933,1.140646 -0.121657,0.745807 -0.567733,1.732905 -1.662647,-0.06581 -3.446952,-0.131613 -1.520714,-0.04387 -3.406399,-0.08775 -1.865409,-0.06581 -3.690265,-0.06581 l 0,9.717426 q 0.547457,0 1.277399,0 0.729943,-0.02194 1.54099,-0.04387 0.811048,-0.02194 1.662647,-0.04387 0.871876,-0.04387 1.682924,-0.06581 1.905961,-0.06581 3.974132,-0.131613 0,0.175484 0.02028,0.372904 0.02028,0.175483 0.02028,0.416774 0.02028,0.219355 0.02028,0.460645 0,0.19742 -0.101381,0.833549 -0.08111,0.63613 -0.405524,1.820647 -2.149276,0 -4.055237,-0.02194 -0.811047,0 -1.662647,0 -0.831324,0 -1.581543,0 -0.750218,-0.02194 -1.37878,-0.02194 -0.628562,0 -1.013809,0 l 0,12.832268 -4.602694,0 0,-29.788408 z" />
         </g>
<g id="mat2" transform="matrix(-0.5,0,0,-0.5,62.5,96.8)">

      <path
         style="fill:#ffffff;fill-opacity:1;fill-rule:evenodd;stroke:none"
         id="card-bottomright-zero"
         d="m 22.110573,30.224075 15.795148,0 q 0,0.15355 0.02028,0.329033 0.02028,0.153548 0.02028,0.350968 0.02028,0.175485 0.02028,0.394839 0,0.372904 -0.141933,1.140646 -0.121657,0.745807 -0.567733,1.732905 -1.662647,-0.06581 -3.446952,-0.131613 -1.520714,-0.04387 -3.406399,-0.08775 -1.865409,-0.06581 -3.690265,-0.06581 l 0,9.717426 q 0.547457,0 1.277399,0 0.729943,-0.02194 1.54099,-0.04387 0.811048,-0.02194 1.662647,-0.04387 0.871876,-0.04387 1.682924,-0.06581 1.905961,-0.06581 3.974132,-0.131613 0,0.175484 0.02028,0.372904 0.02028,0.175483 0.02028,0.416774 0.02028,0.219355 0.02028,0.460645 0,0.19742 -0.101381,0.833549 -0.08111,0.63613 -0.405524,1.820647 -2.149276,0 -4.055237,-0.02194 -0.811047,0 -1.662647,0 -0.831324,0 -1.581543,0 -0.750218,-0.02194 -1.37878,-0.02194 -0.628562,0 -1.013809,0 l 0,12.832268 -4.602694,0 0,-29.788408 z" />
</g>
    </g>
  </g>
</svg>
