<?xml version="1.0" encoding="UTF-8" standalone="no"?>
<svg
   xmlns:dc="http://purl.org/dc/elements/1.1/"
   xmlns:cc="http://creativecommons.org/ns#"
   xmlns:rdf="http://www.w3.org/1999/02/22-rdf-syntax-ns#"
   xmlns:svg="http://www.w3.org/2000/svg"
   xmlns="http://www.w3.org/2000/svg"
   version="1.1"
   id="svg6613"
   viewBox="0 0 62 92"
   height="297mm"
   width="210mm">
  <defs
     id="defs6615" />
  <metadata
     id="metadata6618">
    <rdf:RDF>
      <cc:Work
         rdf:about="">
        <dc:format>image/svg+xml</dc:format>
        <dc:type
           rdf:resource="http://purl.org/dc/dcmitype/StillImage" />
        <dc:title></dc:title>
      </cc:Work>
    </rdf:RDF>
  </metadata>
  <g
     id="layer1">

    <g
       id="purple-zero">
      <rect
         style="fill:#ffffff;fill-opacity:1;fill-rule:evenodd;stroke:#000000;stroke-width:0.5;stroke-miterlimit:4;stroke-dasharray:none"
         id="card-border"
         y="0"
         x="0"
         ry="10"
         rx="10"
         height="90"
         width="60" />

      <rect
         card-fill="rect3757-5-07-1-97"
         style="fill:#55aa55;fill-opacity:1;fill-rule:evenodd;stroke:none"
         id="card-purple-fill"
         y="5"
         x="5"
         ry="5"
         rx="5"
         height="80"
         width="50" />
      
      <path
         style="fill:#ffffff;fill-opacity:1;fill-rule:evenodd;stroke:none"
         id="card-whitecenter"
         d="m 45,20 c -22.09139,0 -40,17.90861 -40,40 0,5.52285 4.47715,10 10,10 22.09139,0 40,-17.90861 40,-40 0,-5.52285 -4.47715,-10 -10,-10 z" />

      <path
         style="fill:#55aa55;fill-opacity:1;fill-rule:evenodd;stroke:none"
         id="card-center-zero"
         d="m 21.826706,30.224075 15.795148,0 q 0,0.15355 0.02028,0.329033 0.02028,0.153548 0.02028,0.350968 0.02028,0.175485 0.02028,0.394839 0,0.372904 -0.141934,1.140646 -0.121657,0.745807 -0.567733,1.732905 -1.682923,-0.06581 -3.487504,-0.131613 -1.54099,-0.04387 -3.406399,-0.08775 -1.865409,-0.06581 -3.649713,-0.06581 l 0,8.993555 q 0.588009,0 1.317952,0 0.750219,-0.02194 1.54099,-0.04387 0.811047,-0.02194 1.622095,-0.04387 0.811047,-0.02194 1.581542,-0.04387 1.784305,-0.06581 3.66999,-0.109678 0,0.175485 0.02028,0.372903 0.02028,0.175485 0.02028,0.416775 0.02028,0.219356 0.02028,0.460646 0,0.109678 -0.04055,0.438709 -0.02028,0.307098 -0.101381,0.701936 -0.06083,0.39484 -0.162209,0.789679 -0.08111,0.394838 -0.202762,0.658064 -1.885685,0 -3.629437,-0.02194 -0.750219,0 -1.54099,0 -0.790772,0 -1.540991,0 -0.729942,-0.02194 -1.399056,-0.02194 -0.669114,0 -1.176019,0 l 0,9.827103 q 1.784304,0 3.751094,-0.06581 1.987066,-0.06581 3.690266,-0.131613 1.987066,-0.08774 3.913304,-0.197418 0,0.197418 0.02028,0.416773 0.02028,0.175485 0.02028,0.438711 0.02028,0.24129 0.02028,0.482581 0,0.460645 -0.06083,1.206452 -0.06083,0.745807 -0.263591,1.601292 l -15.693767,0 0,-29.788408 z" />

<g id="mat" transform="matrix(0.5,0,0,0.5,-2.5,-7.5)">

      <path
         style="fill:#ffffff;fill-opacity:1;fill-rule:evenodd;stroke:none"
         id="card-topleft-zero"
         d="m 21.826706,30.224075 15.795148,0 q 0,0.15355 0.02028,0.329033 0.02028,0.153548 0.02028,0.350968 0.02028,0.175485 0.02028,0.394839 0,0.372904 -0.141934,1.140646 -0.121657,0.745807 -0.567733,1.732905 -1.682923,-0.06581 -3.487504,-0.131613 -1.54099,-0.04387 -3.406399,-0.08775 -1.865409,-0.06581 -3.649713,-0.06581 l 0,8.993555 q 0.588009,0 1.317952,0 0.750219,-0.02194 1.54099,-0.04387 0.811047,-0.02194 1.622095,-0.04387 0.811047,-0.02194 1.581542,-0.04387 1.784305,-0.06581 3.66999,-0.109678 0,0.175485 0.02028,0.372903 0.02028,0.175485 0.02028,0.416775 0.02028,0.219356 0.02028,0.460646 0,0.109678 -0.04055,0.438709 -0.02028,0.307098 -0.101381,0.701936 -0.06083,0.39484 -0.162209,0.789679 -0.08111,0.394838 -0.202762,0.658064 -1.885685,0 -3.629437,-0.02194 -0.750219,0 -1.54099,0 -0.790772,0 -1.540991,0 -0.729942,-0.02194 -1.399056,-0.02194 -0.669114,0 -1.176019,0 l 0,9.827103 q 1.784304,0 3.751094,-0.06581 1.987066,-0.06581 3.690266,-0.131613 1.987066,-0.08774 3.913304,-0.197418 0,0.197418 0.02028,0.416773 0.02028,0.175485 0.02028,0.438711 0.02028,0.24129 0.02028,0.482581 0,0.460645 -0.06083,1.206452 -0.06083,0.745807 -0.263591,1.601292 l -15.693767,0 0,-29.788408 z" />
         </g>
 <path id="questions-top" d="m24.5 13.3c0-0.138-0.139-0.252-0.308-0.252h-1.85c-0.169 0-0.308 0.113-0.308 0.252v1.51c0 0.138 0.139 0.252 0.308 0.252h1.85c0.169 0 0.308-0.113 0.308-0.252v-1.51zm2.43-3.78c0-1.44-1.85-2.52-3.5-2.52-1.57 0-2.74 0.547-3.57 1.67-0.0847 0.113-0.0539 0.252 0.077 0.333l1.26 0.786c0.0616 0.0315 0.123 0.0503 0.193 0.0503 0.0847 0 0.177-0.0377 0.239-0.101 0.455-0.466 0.639-0.617 0.824-0.724 0.169-0.0944 0.485-0.182 0.832-0.182 0.624 0 1.19 0.315 1.19 0.667 0 0.403-0.247 0.61-0.84 0.831-0.678 0.252-1.6 0.906-1.6 1.67v0.283c0 0.138 0.108 0.352 0.277 0.352h1.85c0.177 0 0.308-0.164 0.308-0.302 0-0.182 0.285-0.617 0.74-0.831 0.732-0.333 1.73-0.793 1.73-1.99z" fill="#fff"/>
 
<g id="mat2" transform="matrix(-0.5,0,0,-0.5,62.5,96.8)">

      <path
         style="fill:#ffffff;fill-opacity:1;fill-rule:evenodd;stroke:none"
         id="card-bottomright-zero"
         d="m 21.826706,30.224075 15.795148,0 q 0,0.15355 0.02028,0.329033 0.02028,0.153548 0.02028,0.350968 0.02028,0.175485 0.02028,0.394839 0,0.372904 -0.141934,1.140646 -0.121657,0.745807 -0.567733,1.732905 -1.682923,-0.06581 -3.487504,-0.131613 -1.54099,-0.04387 -3.406399,-0.08775 -1.865409,-0.06581 -3.649713,-0.06581 l 0,8.993555 q 0.588009,0 1.317952,0 0.750219,-0.02194 1.54099,-0.04387 0.811047,-0.02194 1.622095,-0.04387 0.811047,-0.02194 1.581542,-0.04387 1.784305,-0.06581 3.66999,-0.109678 0,0.175485 0.02028,0.372903 0.02028,0.175485 0.02028,0.416775 0.02028,0.219356 0.02028,0.460646 0,0.109678 -0.04055,0.438709 -0.02028,0.307098 -0.101381,0.701936 -0.06083,0.39484 -0.162209,0.789679 -0.08111,0.394838 -0.202762,0.658064 -1.885685,0 -3.629437,-0.02194 -0.750219,0 -1.54099,0 -0.790772,0 -1.540991,0 -0.729942,-0.02194 -1.399056,-0.02194 -0.669114,0 -1.176019,0 l 0,9.827103 q 1.784304,0 3.751094,-0.06581 1.987066,-0.06581 3.690266,-0.131613 1.987066,-0.08774 3.913304,-0.197418 0,0.197418 0.02028,0.416773 0.02028,0.175485 0.02028,0.438711 0.02028,0.24129 0.02028,0.482581 0,0.460645 -0.06083,1.206452 -0.06083,0.745807 -0.263591,1.601292 l -15.693767,0 0,-29.788408 z" />
</g>
 <path id="questions-bottom" d="m34.9 76.7c0 0.138 0.131 0.252 0.291 0.252h1.75c0.16 0 0.291-0.113 0.291-0.252v-1.51c0-0.138-0.131-0.252-0.291-0.252h-1.75c-0.16 0-0.291 0.113-0.291 0.252v1.51zm-2.3 3.78c0 1.44 1.75 2.52 3.31 2.52 1.49 0 2.59-0.547 3.38-1.67 0.0801-0.113 0.051-0.252-0.0728-0.333l-1.2-0.8c-0.0583-0.0314-0.117-0.0503-0.182-0.0503-0.0801 0-0.167 0.0378-0.226 0.101-0.43 0.466-0.604 0.617-0.779 0.724-0.16 0.0944-0.459 0.182-0.786 0.182-0.59 0-1.12-0.315-1.12-0.667 0-0.403 0.233-0.61 0.794-0.831 0.641-0.252 1.51-0.906 1.51-1.67v-0.283c0-0.138-0.102-0.352-0.262-0.352h-1.75c-0.167 0-0.291 0.164-0.291 0.302 0 0.182-0.269 0.617-0.699 0.831-0.692 0.333-1.63 0.793-1.63 1.99z" fill="#fff"/>
 
    </g>
  </g>
</svg>
